<svg xmlns="http://www.w3.org/2000/svg" width="845.056" height="690.688" viewBox="0 0 845.056 690.688">
  <g id="Groupe_2021" data-name="Groupe 2021" transform="matrix(0.996, -0.087, 0.087, 0.996, -986.992, -2496.007)">
    <ellipse id="Ellipse_127" data-name="Ellipse 127" cx="188" cy="179" rx="188" ry="179" transform="translate(748.609 2915.669) rotate(-9)" fill="#4476a8" opacity="0.271"/>
    <g id="Groupe_1994" data-name="Groupe 1994" transform="translate(482 2644.123)">
      <g id="Groupe_1995" data-name="Groupe 1995" transform="translate(237.673 -6.929)">
        <ellipse id="Ellipse_120" data-name="Ellipse 120" cx="40.511" cy="33.754" rx="40.511" ry="33.754" transform="translate(196.685 409.307)" fill="#042033"/>
        <path id="Tracé_1691" data-name="Tracé 1691" d="M405.283,398.895c8.134-3.616,37.9-32.918,63.209-40.148s35.518-9.824,49.076-12.536c4.46-.893,29-11.3,46.845-18.686,10.924-16.977,104.144-84.978,104.144-84.978L702.484,351s-74.112,25.307-94.9,22.6-78.345,7.856-82.865,9.662-23.213,25.338-42.821,35.3c-14.074,7.148-54.092,12.505-61.323,14.313s-85.035,61.837-85.035,61.837l-4.519-60.555S397.148,402.509,405.283,398.895Z" transform="translate(-229.046 29.986)" fill="#dcd8cb"/>
        <path id="Tracé_1692" data-name="Tracé 1692" d="M693.867,321.177c-11.25,6.4-21.925,12.293-30.979,16.973l-39.976-60.317s-2.365,16.242-5.457,28.763c-2.614,10.581,8.679,26.818,10.922,42.584-11.068.771-18.337,2.606-22.4,7.706-5.1,6.407-32.044,4.517-61.9,7.381s-38.6,13.887-43.781,27.673S477.076,412.383,463.6,415.3s-37.507,3.641-47.7,8.005c-9.3,3.981-51.317,35.237-81.559,56.176l.894,11.969s77.8-60.03,85.035-61.837,47.25-7.165,61.323-14.313c19.608-9.96,38.3-33.489,42.821-35.3s62.077-12.374,82.865-9.662,94.9-22.6,94.9-22.6Z" transform="translate(-228.739 33.247)" fill="#c6c1b6"/>
        <ellipse id="Ellipse_123" data-name="Ellipse 123" cx="10.834" cy="9.826" rx="10.834" ry="9.826" transform="translate(224.03 399.48)" fill="#e26b37"/>
        <path id="Tracé_1697" data-name="Tracé 1697" d="M446.167,364.559c3.823,2.365,10.013,4.2,12.744,3.679a10.2,10.2,0,0,0,3.642-1.183l1.346-18.971-15.033-3.952Z" transform="translate(-218.404 39.375)" fill="#e26b37"/>
        <path id="Tracé_1698" data-name="Tracé 1698" d="M473.271,346.1c-.91-3.277-3.823-20.027-8.376-20.756s-17.843.182-20.937,2-5.371,8.275-4.552,9.65c.992,1.664,2.32,4.148,3.844,6.882-3.269-.7-7.8-1.315-8.214.608-.546,2.522,3.095,7.438,5.371,7.8a62.05,62.05,0,0,0,7.927.079c2.127,3.187,4.328,5.914,6.366,7.2,5.462,3.46,11.653,5.281,16.75,3.278C473.22,362.157,474.181,349.379,473.271,346.1Z" transform="translate(-219.437 37.615)" fill="#f4793b"/>
        <path id="Tracé_1699" data-name="Tracé 1699" d="M446.625,334.45c1.936-3.025,15.227-2.271,18.754-2.914s17.114-11.47,17.3-21.848-12.745-30.77-25.4-24.943-17.934,24.943-17.934,26.218c-9.286-2.185-17.3-3.277-21.848,6.372s2.55,23.487,2.731,25.126c-2,8.193-5.826,15.476,0,19.481s14.82.182,16.514-1.092,14.62-2.549,14.62-2.549S443.8,338.871,446.625,334.45Z" transform="translate(-221.194 33.791)" fill="#042033"/>
        <path id="Tracé_1700" data-name="Tracé 1700" d="M440.222,339.139c1.89,3.61,6.462,11.877,9.593,12.113s25.31-8.836,26.787-10.312c1.091-1.09-1.091-9.9-2.972-14.526a4.085,4.085,0,0,0-3.723-2.823c-2.761.019-25.627,9.307-27.615,10.428C441.124,334.678,439.257,337.3,440.222,339.139Z" transform="translate(-218.978 37.476)" fill="#dcd8cb"/>
        <path id="Tracé_1701" data-name="Tracé 1701" d="M445.423,337.56c1.617,3.088,5.527,10.158,8.205,10.359s21.65-7.556,22.913-8.819c.933-.934-.933-8.47-2.543-12.426a3.492,3.492,0,0,0-3.183-2.413c-2.362.015-21.921,7.961-23.62,8.92C446.2,333.743,444.6,335.984,445.423,337.56Z" transform="translate(-218.493 37.538)" fill="#0b354c"/>
        <path id="Tracé_1702" data-name="Tracé 1702" d="M621.54,225.67c-28.159,16.674-29.521,46.341-27.336,63.954s20.392,57.669,45.518,68.593,56.784,7.044,72.379.3c22.138-9.567,27.624-35.322,29.95-49.831C749.336,263.262,696.569,181.244,621.54,225.67Z" transform="translate(-204.786 27.245)" fill="#dcd8cb"/>
        <path id="Tracé_1703" data-name="Tracé 1703" d="M641.981,237.509c-22.553,11.013-24.7,33.107-22.941,44.607s11.11,33.1,29.445,44.14c21.945,13.212,40.823,8.171,53.758,4.644s16.947-22.206,16.977-31.8C719.3,273.422,693.833,212.191,641.981,237.509Z" transform="translate(-202.47 28.965)" fill="#c6c1b6"/>
        <circle id="Ellipse_124" data-name="Ellipse 124" cx="41.515" cy="41.515" r="41.515" transform="translate(66.267 456.55)" fill="#dcd8cb"/>
        <circle id="Ellipse_125" data-name="Ellipse 125" cx="31.711" cy="31.711" r="31.711" transform="translate(65.516 469.124)" fill="#c6c1b6"/>
        <g id="Groupe_1962" data-name="Groupe 1962" transform="translate(234.361 363.629)">
          <rect id="Rectangle_5436" data-name="Rectangle 5436" width="24.317" height="1.093" transform="matrix(0.39, -0.921, 0.921, 0.39, 0, 22.386)" fill="#dcd8cb"/>
        </g>
        <g id="Groupe_1963" data-name="Groupe 1963" transform="translate(243.793 366.101)">
          <rect id="Rectangle_5437" data-name="Rectangle 5437" width="13.514" height="1.093" transform="translate(0 12.56) rotate(-68.344)" fill="#dcd8cb"/>
        </g>
        <path id="Tracé_1704" data-name="Tracé 1704" d="M809.767,126.333c-1.173,20.516-36.68,51.235-36.68,51.235l-11.6-16.284Z" transform="translate(-189.261 19.245)" fill="#e26b37"/>
        <path id="Tracé_1705" data-name="Tracé 1705" d="M630.784,272.363l25.887-39.751L743.605,276.4l-45.87,40.755s-16.932,16.386-51.89-12.017C624.587,287.863,630.784,272.363,630.784,272.363Z" transform="translate(-201.418 29.068)" fill="#db6035"/>
        <path id="Tracé_1706" data-name="Tracé 1706" d="M680.284,274.317c6.479,14.31,25.888,24.667,37.871,23.668,13.109-1.092,60.462-12.359,79.427-24.375,5.4-3.421,22.186-21.87,22.186-26.24S790.92,144.3,751.04,140.157c-5.009-.52-32.521-23.331-42.9-12.407s-51.89,92.31-54.621,99.957S672.7,257.566,680.284,274.317Z" transform="translate(-199.261 19.103)" fill="#e26b37"/>
        <path id="Tracé_1707" data-name="Tracé 1707" d="M707.018,254.5c9.816-11.155,14.37-40.527,6.171-54.875s-43.738-21.088-45.1-29.238c-1.639-9.832.177-45.231-3.411-55.479-2.433-6.953-8.881-19.006-19.129-24.253-6.08-3.113-12.87-1.466-12.691,2.245.363,7.51,2.148,28.415.97,32.537-2.049,7.174-11.166,46.177-11.166,53.351s26.132,79.534,38.359,84.2C670.153,266.475,695.746,267.307,707.018,254.5Z" transform="translate(-202.091 15.796)" fill="#e26b37"/>
        <path id="Tracé_1708" data-name="Tracé 1708" d="M715.366,122.728c6.089-10.367,15.294-32.8,29.988-49.686,11.439-26.218,26.295-44.559,29.549-46.428,8.557-4.916,25.126,4.364,25.672,15.288.26,5.2-5.462,24.585-24.82,51.663-12.466,35.321-40.41,78.341-40.41,78.341s-52.267,3.031-47.662-7.425C697.159,142.957,715.366,122.728,715.366,122.728Z" transform="translate(-196.108 9.904)" fill="#e26b37"/>
        <path id="Tracé_1709" data-name="Tracé 1709" d="M783.577,105.656c-9.286,3.277-43.4,54.976-45.953,61.675-3.836,10.072-.25,20.351,11.6,23.931,6.614,2,43.023-30.609,49.577-37.163s14.168-20.983,14.714-27.538-13.394-16.523-15.579-18.708S783.577,105.656,783.577,105.656Z" transform="translate(-191.602 17.334)" fill="#f4793b"/>
        <path id="Tracé_1710" data-name="Tracé 1710" d="M775,259.5c10.441-2.245,42.058-16.113,44.243-17.752s7.407-14.356,5.222-18.179-8.465-17.2-14.474-17.214-42.236,27.661-49.337,33.482C756.285,243.417,752.141,264.412,775,259.5Z" transform="translate(-189.654 26.641)" fill="#f4793b"/>
        <path id="Tracé_1711" data-name="Tracé 1711" d="M773.323,227.186c5.176-1.468,39.252-23.9,42.529-26.633s17.238-15.294,17.238-22.521c0-3.823-10.138-22.686-14.507-24.926s-20.983,4.334-25.741,7.112c-3.8,2.222-30.74,34.961-38.166,45.8C748.941,214.384,755.025,232.375,773.323,227.186Z" transform="translate(-190.083 21.677)" fill="#f4793b"/>
        <path id="Tracé_1712" data-name="Tracé 1712" d="M253.277,468.691c2.757-12.812,16.074-62.424,25.419-65.788s48.607,21.663,53.895,23.744c5.617,2.212,10.772-1.69,13.015-4.68s5.191-13.4,13.789-20.6,17.61-11.172,20.227-10.051,6.986,7.07,5.662,7.672-9.774,20.737-12.391,24.1-10.092,16.448-12.708,20.559-4.5,18.53-9.363,25.3c-6.808,9.47-14.427,10.252-22.833,15.99S311.9,497.852,306.5,498.409c-14.094,1.457-31.552-9.847-41.336-15.049a18.083,18.083,0,0,1-6.962-6.572Z" transform="translate(-236.231 43.718)" fill="#db6035"/>
        <path id="Tracé_1713" data-name="Tracé 1713" d="M299.187,423.976c1.12-11.744.121-36.466-1.748-41.7s-10.466-48.593-7.85-56.07,11.588-13.83,17.195-10.093,13.083,42.987,14.952,48.968-1.121,14.952,0,20.185,5.234,41.866,8.224,50.837S299.187,423.976,299.187,423.976Z" transform="translate(-232.92 36.684)" fill="#db6035"/>
        <path id="Tracé_1714" data-name="Tracé 1714" d="M292.971,324.717c-1.976,11.439-1.341,26.663,2.808,34.316s11.165,5.569,14.945,1.781c7.564-7.578-2.326-35.593-4.266-39.323S293.974,318.916,292.971,324.717Z" transform="translate(-232.662 37.084)" fill="#e26b37"/>
        <path id="Tracé_1715" data-name="Tracé 1715" d="M263.961,387.753c-2.472-7.056.374-16.074,5.98-18.317s13.458,4.86,16.821,9.159,15.647,31.248,16.288,35.376c.819,5.28-7.2,11.268-10.117,10.446C284.208,421.959,265.746,392.851,263.961,387.753Z" transform="translate(-235.327 41.674)" fill="#f4793b"/>
        <g id="Groupe_1964" data-name="Groupe 1964" transform="translate(315.819 6.903)">
          <path id="Tracé_1716" data-name="Tracé 1716" d="M840.668,273.869a3.277,3.277,0,0,1-.473-6.518A266.679,266.679,0,0,0,971.55,208.721a3.277,3.277,0,1,1,4.184,5.046A273.219,273.219,0,0,1,841.15,273.834,3.148,3.148,0,0,1,840.668,273.869Zm-90.2-1.778a3.324,3.324,0,0,1-.61-.058,273.384,273.384,0,0,1-132.09-65.391,3.277,3.277,0,1,1,4.381-4.874,266.849,266.849,0,0,0,128.922,63.824,3.278,3.278,0,0,1-.6,6.5ZM1032.6,146.213a3.277,3.277,0,0,1-2.8-4.977A267.082,267.082,0,0,0,1068.429,2.667a3.277,3.277,0,1,1,6.554,0A273.634,273.634,0,0,1,1035.4,144.635,3.274,3.274,0,0,1,1032.6,146.213Zm-468.831-9.307a3.279,3.279,0,0,1-2.871-1.691A274.35,274.35,0,0,1,526.773,2.667a3.277,3.277,0,1,1,6.555,0,267.761,267.761,0,0,0,33.3,129.371,3.28,3.28,0,0,1-2.864,4.867Z" transform="translate(-526.773 0.61)" fill="#4476a8"/>
        </g>
        <g id="Groupe_1965" data-name="Groupe 1965" transform="translate(16.305 309.442)">
          <path id="Tracé_1717" data-name="Tracé 1717" d="M302.56,376.257a49.962,49.962,0,1,1,49.962-49.963A50.018,50.018,0,0,1,302.56,376.257Zm0-96.647a46.685,46.685,0,1,0,46.685,46.684A46.737,46.737,0,0,0,302.56,279.61Z" transform="translate(-252.599 -276.333)" fill="#dcd8cb"/>
        </g>
        <path id="Tracé_1721" data-name="Tracé 1721" d="M282.2,408.582c-2.574-7.329,6.309-10.756,9.112-9.39s6.976,8.768,7.352,11.08c.478,2.935-6.628,7.782-8.255,8.117C287.743,418.935,283.492,412.267,282.2,408.582Z" transform="translate(-233.601 44.437)" fill="#dcd8cb"/>
        <path id="Tracé_1722" data-name="Tracé 1722" d="M244.849,431.591c9.17,3.086,21.8,14.475,21.8,14.475l-10.635,11.4Z" transform="translate(-237.01 47.458)" fill="#db6035"/>
        <path id="Tracé_1723" data-name="Tracé 1723" d="M256,392.417c9.17,3.086,19.458,14.475,19.458,14.475l-7.685,19.636Z" transform="translate(-235.979 43.838)" fill="#db6035"/>
        <path id="Tracé_1724" data-name="Tracé 1724" d="M250.054,433.545c-1.971-2.118-6.917-2.887-8.4-.4a27.835,27.835,0,0,0-3.98,13.935c.035,3.655,13.988,23.047,19.85,26.644,4.686,2.876,9.56,5.168,13.529,1.6,3.573-3.215,4.849-8.293.586-13.817-2.142-2.777-6.2-8.531-12.249-13.359C256.371,441.5,253.606,437.363,250.054,433.545Z" transform="translate(-237.673 47.458)" fill="#f4793b"/>
        <path id="Tracé_1725" data-name="Tracé 1725" d="M255.743,465.316c-2.993-5.584,2.1-9.006,4.688-8.027,3.72,1.407,9.3,6.988,9.632,8.958.426,2.5-4.067,5.829-5.53,6.062S257.332,468.279,255.743,465.316Z" transform="translate(-236.088 49.818)" fill="#dcd8cb"/>
        <path id="Tracé_1726" data-name="Tracé 1726" d="M239.935,411.236c-.374-4.112,2.243-17.125,7.1-19.963s12.335-.6,14.952,2.02,19.373,35.449,21.989,39.043,14.643,15.428,14.643,19.778-1.551,10.53-6.45,11.356c-8.1,1.365-18.63-13.359-22.911-15.977s-20.354-20.932-21.85-23.549S239.935,411.236,239.935,411.236Z" transform="translate(-237.467 43.61)" fill="#f4793b"/>
        <path id="Tracé_1727" data-name="Tracé 1727" d="M276.55,447.6c-2.573-7.329,3.952-9.856,6.756-8.49s9.24,7.246,9.617,9.559c.477,2.936-2.395,7.371-3.946,7.966C285.377,458.021,277.843,451.288,276.55,447.6Z" transform="translate(-234.135 48.121)" fill="#dcd8cb"/>
        <path id="Tracé_1728" data-name="Tracé 1728" d="M751.936,155.294c9.548-6.723,15.946,3.37,15.578,9.17-.3,4.678-12.1,16.9-15.578,17.479-4.41.736-10.754-6.138-11.658-8.466C738.178,168.074,746.605,159.048,751.936,155.294Z" transform="translate(-191.251 21.716)" fill="#dcd8cb"/>
        <path id="Tracé_1729" data-name="Tracé 1729" d="M768.138,194.087c9.548-6.724,15.946,3.369,15.578,9.17-.3,4.678-12.1,16.9-15.578,17.479-4.41.735-10.754-6.139-11.658-8.466C754.38,206.867,762.807,197.841,768.138,194.087Z" transform="translate(-189.754 25.301)" fill="#dcd8cb"/>
        <path id="Tracé_1730" data-name="Tracé 1730" d="M775.212,233.824c9.8-3.817,11.308,5.784,9.559,10.924-1.41,4.145-13.827,10.4-16.933,10.108-3.942-.373-6.74-6.313-6.936-8.622C760.45,240.875,769.738,235.955,775.212,233.824Z" transform="translate(-189.316 29.099)" fill="#dcd8cb"/>
        <g id="Groupe_1966" data-name="Groupe 1966" transform="translate(12.122 498.313)">
          <path id="Tracé_1731" data-name="Tracé 1731" d="M249.316,458.4a.562.562,0,0,1-.178-.03.547.547,0,0,1-.339-.695c2.156-6.263,6.178-8.308,6.347-8.392a.547.547,0,0,1,.485.98c-.037.017-3.8,1.956-5.8,7.768A.547.547,0,0,1,249.316,458.4Z" transform="translate(-248.77 -449.225)" fill="#062b3f"/>
        </g>
        <g id="Groupe_1967" data-name="Groupe 1967" transform="translate(9.588 495.364)">
          <path id="Tracé_1732" data-name="Tracé 1732" d="M247,453.067a.536.536,0,0,1-.215-.045.546.546,0,0,1-.286-.718c2.192-5.106,5.252-5.744,5.381-5.769a.547.547,0,0,1,.2,1.074c-.021,0-2.639.6-4.582,5.127A.548.548,0,0,1,247,453.067Z" transform="translate(-246.45 -446.526)" fill="#062b3f"/>
        </g>
        <g id="Groupe_1968" data-name="Groupe 1968" transform="translate(33.457 476.268)">
          <path id="Tracé_1733" data-name="Tracé 1733" d="M268.845,439.388a.524.524,0,0,1-.193-.037.544.544,0,0,1-.317-.7c1.494-3.926,5.011-8.75,6.967-9.561a.546.546,0,0,1,.418,1.009c-1.388.575-4.791,4.809-6.364,8.939A.548.548,0,0,1,268.845,439.388Z" transform="translate(-268.299 -429.045)" fill="#062b3f"/>
        </g>
        <g id="Groupe_1969" data-name="Groupe 1969" transform="translate(29.943 471.666)">
          <path id="Tracé_1734" data-name="Tracé 1734" d="M265.629,432.762a.57.57,0,0,1-.193-.035.547.547,0,0,1-.317-.706c1.548-4.067,4.134-6.358,6.037-7.147a.546.546,0,0,1,.418,1.009c-1.693.7-4.01,2.783-5.434,6.526A.547.547,0,0,1,265.629,432.762Z" transform="translate(-265.083 -424.833)" fill="#062b3f"/>
        </g>
        <g id="Groupe_1970" data-name="Groupe 1970" transform="translate(44.338 434.3)">
          <path id="Tracé_1735" data-name="Tracé 1735" d="M278.805,398.077a.546.546,0,0,1-.444-.864,21.709,21.709,0,0,1,8.518-6.545.546.546,0,1,1,.412,1.012c-.051.021-5.162,2.138-8.04,6.169A.548.548,0,0,1,278.805,398.077Z" transform="translate(-278.26 -390.627)" fill="#062b3f"/>
        </g>
        <g id="Groupe_1971" data-name="Groupe 1971" transform="translate(42.233 429.349)">
          <path id="Tracé_1736" data-name="Tracé 1736" d="M276.879,392.139a.546.546,0,0,1-.444-.864c3.095-4.335,6.427-5.132,6.567-5.165a.546.546,0,0,1,.245,1.065c-.031.008-3.087.764-5.923,4.736A.545.545,0,0,1,276.879,392.139Z" transform="translate(-276.333 -386.096)" fill="#062b3f"/>
        </g>
        <g id="Groupe_1972" data-name="Groupe 1972" transform="translate(574.727 157.267)">
          <path id="Tracé_1737" data-name="Tracé 1737" d="M778.764,152.732a.541.541,0,0,1-.478-.284,49.844,49.844,0,0,0-14.262-14.412.547.547,0,1,1,.6-.915,51.132,51.132,0,0,1,14.622,14.8.545.545,0,0,1-.219.741A.537.537,0,0,1,778.764,152.732Z" transform="translate(-763.776 -137.033)" fill="#062b3f"/>
        </g>
        <g id="Groupe_1973" data-name="Groupe 1973" transform="translate(605.603 193.453)">
          <path id="Tracé_1738" data-name="Tracé 1738" d="M806.2,192a.545.545,0,0,1-.494-.312c-.071-.151-7.164-15.069-13.476-20.572a.546.546,0,0,1,.717-.824c6.486,5.655,13.454,20.308,13.747,20.929a.547.547,0,0,1-.26.728A.539.539,0,0,1,806.2,192Z" transform="translate(-792.04 -170.157)" fill="#062b3f"/>
        </g>
        <g id="Groupe_1974" data-name="Groupe 1974" transform="translate(614.845 193.455)">
          <path id="Tracé_1739" data-name="Tracé 1739" d="M809.422,183.823a.545.545,0,0,1-.493-.311,64.15,64.15,0,0,0-8.3-12.453.546.546,0,1,1,.83-.71,65.177,65.177,0,0,1,8.453,12.693.547.547,0,0,1-.493.781Z" transform="translate(-800.5 -170.159)" fill="#062b3f"/>
        </g>
        <g id="Groupe_1975" data-name="Groupe 1975" transform="translate(609.255 247.404)">
          <path id="Tracé_1740" data-name="Tracé 1740" d="M804.061,237.4a.547.547,0,0,1-.535-.445c-.02-.1-2.035-10.374-7.989-16.487a.547.547,0,0,1,.783-.762c6.185,6.354,8.2,16.611,8.278,17.045a.546.546,0,0,1-.434.639A.557.557,0,0,1,804.061,237.4Z" transform="translate(-795.383 -219.544)" fill="#062b3f"/>
        </g>
        <g id="Groupe_1976" data-name="Groupe 1976" transform="translate(480.835)">
          <path id="Tracé_1741" data-name="Tracé 1741" d="M807.042,150.487a2.185,2.185,0,0,1-.41-4.33,104.689,104.689,0,0,0,84.8-102.746,2.185,2.185,0,1,1,4.37,0,109.062,109.062,0,0,1-88.349,107.037A2.241,2.241,0,0,1,807.042,150.487ZM721.49,130.1a2.18,2.18,0,0,1-1.337-.458,108.33,108.33,0,0,1-42.325-86.229A107.851,107.851,0,0,1,689.51-5.731a2.186,2.186,0,0,1,2.936-.962,2.185,2.185,0,0,1,.962,2.936A103.519,103.519,0,0,0,682.2,43.411a103.994,103.994,0,0,0,40.63,82.775,2.185,2.185,0,0,1-1.338,3.912Z" transform="translate(-677.828 6.929)" fill="#4476a8"/>
        </g>
        <path id="Tracé_1742" data-name="Tracé 1742" d="M365.3,393.157c-7.568,3.715-16.25,10.579-18.981,16.281s1.486,8.939,5.326,9.548c7.681,1.216,19.937-16.544,21.3-19.275S369.142,391.273,365.3,393.157Z" transform="translate(-227.712 43.871)" fill="#e26b37"/>
        <path id="Tracé_1743" data-name="Tracé 1743" d="M637.667,92.716c0,8.172,9.1,24.14,8.739,32.151s5.41,17.968,14.019,13.838c5.19-2.491,3.458-13.413,1.821-21.848-2.367-12.2-15.113-21.667-17.661-23.306S637.667,89.149,637.667,92.716Z" transform="translate(-200.704 15.978)" fill="#ef7545"/>
        <g id="Groupe_1984" data-name="Groupe 1984" transform="translate(553.685 14.2)">
          <g id="Groupe_1977" data-name="Groupe 1977">
            <path id="Tracé_1744" data-name="Tracé 1744" d="M780.653,78.349a36.14,36.14,0,1,1,36.14-36.14A36.18,36.18,0,0,1,780.653,78.349Zm0-67.909a31.77,31.77,0,1,0,31.77,31.77A31.806,31.806,0,0,0,780.653,10.44Z" transform="translate(-744.514 -6.07)" fill="#4476a8"/>
          </g>
          <g id="Groupe_1983" data-name="Groupe 1983" transform="translate(2.516 7.016)">
            <g id="Groupe_1978" data-name="Groupe 1978" transform="translate(0 26.939)">
              <rect id="Rectangle_5438" data-name="Rectangle 5438" width="67.911" height="4.37" transform="translate(0 0)" fill="#4476a8"/>
            </g>
            <g id="Groupe_1979" data-name="Groupe 1979" transform="translate(2.833 13.47)">
              <rect id="Rectangle_5439" data-name="Rectangle 5439" width="62.299" height="4.37" fill="#4476a8"/>
            </g>
            <g id="Groupe_1980" data-name="Groupe 1980" transform="translate(13.8)">
              <rect id="Rectangle_5440" data-name="Rectangle 5440" width="41.078" height="4.37" fill="#4476a8"/>
            </g>
            <g id="Groupe_1981" data-name="Groupe 1981" transform="translate(4.054 40.409)">
              <rect id="Rectangle_5441" data-name="Rectangle 5441" width="60.466" height="4.37" fill="#4476a8"/>
            </g>
            <g id="Groupe_1982" data-name="Groupe 1982" transform="translate(12.804 53.88)">
              <rect id="Rectangle_5442" data-name="Rectangle 5442" width="42.074" height="4.37" fill="#4476a8"/>
            </g>
          </g>
        </g>
        <g id="Groupe_1992" data-name="Groupe 1992" transform="translate(42.591 335.835)">
          <g id="Groupe_1985" data-name="Groupe 1985">
            <path id="Tracé_1745" data-name="Tracé 1745" d="M300.229,347.631a23.569,23.569,0,1,1,23.569-23.57A23.6,23.6,0,0,1,300.229,347.631Zm0-43.861a20.292,20.292,0,1,0,20.292,20.291A20.313,20.313,0,0,0,300.229,303.77Z" transform="translate(-276.661 -300.493)" fill="#dcd8cb"/>
          </g>
          <g id="Groupe_1991" data-name="Groupe 1991" transform="translate(1.853 4.531)">
            <g id="Groupe_1986" data-name="Groupe 1986" transform="translate(0 17.399)">
              <rect id="Rectangle_5443" data-name="Rectangle 5443" width="43.86" height="3.277" fill="#dcd8cb"/>
            </g>
            <g id="Groupe_1987" data-name="Groupe 1987" transform="translate(1.83 8.7)">
              <rect id="Rectangle_5444" data-name="Rectangle 5444" width="40.236" height="3.277" fill="#dcd8cb"/>
            </g>
            <g id="Groupe_1988" data-name="Groupe 1988" transform="translate(8.913)">
              <rect id="Rectangle_5445" data-name="Rectangle 5445" width="26.53" height="3.277" fill="#dcd8cb"/>
            </g>
            <g id="Groupe_1989" data-name="Groupe 1989" transform="translate(2.618 26.099)">
              <rect id="Rectangle_5446" data-name="Rectangle 5446" width="39.053" height="3.277" fill="#dcd8cb"/>
            </g>
            <g id="Groupe_1990" data-name="Groupe 1990" transform="translate(8.269 34.799)">
              <rect id="Rectangle_5447" data-name="Rectangle 5447" width="27.174" height="3.277" fill="#dcd8cb"/>
            </g>
          </g>
        </g>
      </g>
    </g>
  </g>
</svg>
