<svg xmlns="http://www.w3.org/2000/svg" xmlns:xlink="http://www.w3.org/1999/xlink" width="833.305" height="814.206" viewBox="0 0 833.305 814.206">
  <defs>
    <filter id="Ellipse_129" x="145.705" y="196.549" width="548.461" height="522.069" filterUnits="userSpaceOnUse">
      <feOffset dy="25" input="SourceAlpha"/>
      <feGaussianBlur stdDeviation="25" result="blur"/>
      <feFlood flood-opacity="0.78"/>
      <feComposite operator="in" in2="blur"/>
      <feComposite in="SourceGraphic"/>
    </filter>
    <filter id="Tracé_1663" x="12.683" y="0" width="813.535" height="814.206" filterUnits="userSpaceOnUse">
      <feOffset dy="10" input="SourceAlpha"/>
      <feGaussianBlur stdDeviation="12.5" result="blur-2"/>
      <feFlood flood-opacity="0.361"/>
      <feComposite operator="in" in2="blur-2"/>
      <feComposite in="SourceGraphic"/>
    </filter>
  </defs>
  <g id="Symbole_43_1" data-name="Symbole 43 – 1" transform="translate(116.834 -2017.191)">
    <g transform="matrix(1, 0, 0, 1, -116.83, 2017.19)" filter="url(#Ellipse_129)">
      <ellipse id="Ellipse_129-2" data-name="Ellipse 129" cx="190.499" cy="176.577" rx="190.499" ry="176.577" transform="translate(238.66 246.55) rotate(2.91)" fill="#132d7f"/>
    </g>
    <ellipse id="Ellipse_112" data-name="Ellipse 112" cx="204.499" cy="189.077" rx="204.499" ry="189.077" transform="translate(108.454 2251.094) rotate(2.914)" fill="#dcd8cb"/>
    <path id="Tracé_1656" data-name="Tracé 1656" d="M885.249,110.283c-18.362,16.092-27.53,42.134-15.608,65.9,13.537,26.986,4.366,66.3-10.025,77.809-79.414,63.535-98.374-29.183-138.457-10.844-49.972,22.864-27.881,109.942-51.711,126.933-12.769,9.1-36.581,13.895-63.772,12,36.5,22.78,81.363,34.724,128.954,31.326,112.655-8.048,197.948-99.008,190.51-203.167A178.1,178.1,0,0,0,885.249,110.283Z" transform="translate(-385.313 2139.305) rotate(7)" fill="#246fc9"/>
    <g id="Groupe_1928" data-name="Groupe 1928" transform="translate(-52.528 2127.106) rotate(7)">
      <path id="Tracé_1657" data-name="Tracé 1657" d="M545.151,556.165c-34.948,1.775-59.169-5.679-70.637-22.326-31.352-45.5,39.163-146.477,183.783-259.126l-1.935,12.3C521.236,392.272,457.847,488.471,484.667,527.4c16.465,23.9,71.674,23.344,151.474-1.525,83.3-25.958,184.1-75.1,283.827-138.381s186.326-133.036,243.84-196.421c55.1-60.72,77.253-109.255,60.788-133.152-14.194-20.6-57.014-23.158-120.58-7.2-56.142,14.093-119.185,36.325-190.228,72.56l-16.194-3.306c73.006-37.252,147.78-66.557,203.389-80.514,69.989-17.571,116.245-13.411,133.766,12.022,19.981,29-1.961,81.281-61.782,147.211-58.217,64.16-145.693,134.655-246.318,198.5S724.173,510.665,639.858,536.942C602.945,548.444,571.092,554.848,545.151,556.165Z" transform="translate(-467.173 -28.767)"/>
    </g>
    <g id="Groupe_1929" data-name="Groupe 1929" transform="translate(14.196 2044.691) rotate(7)">
      <path id="Tracé_1658" data-name="Tracé 1658" d="M1103.956,647.174c-30.186,0-71.553-14.113-121.394-41.88-76.466-42.6-164.869-112.351-248.923-196.4A1481.451,1481.451,0,0,1,629.983,294.154c-53.492-66.083-93.517-128.524-115.745-180.573C490.69,58.444,489.047,18.5,509.488-1.945c22.75-22.748,68.968-18.246,133.66,13.019,60.922,29.445,141.134,86.816,214.631,151.8l-15.576.084c-72.7-64.284-144.312-112.109-204.275-141.09C579.112-6.554,536.5-12,517.97,6.537c-34.288,34.286,15.608,149.455,121.336,280.071a1468.993,1468.993,0,0,0,102.814,113.8C825.412,483.7,912.874,552.742,988.4,594.816c72.378,40.323,126.174,51.163,147.594,29.744,32.361-32.363-6.253-131.983-101.335-254.7l1.213-15.334c102.044,131.7,146.585,240.532,108.6,278.514C1135.021,642.492,1121.341,647.174,1103.956,647.174Z" transform="translate(-495.28 16.223)"/>
      <g transform="matrix(0.99, -0.12, 0.12, 0.99, -133.41, -11.33)" filter="url(#Tracé_1663)">
        <path id="Tracé_1663-2" data-name="Tracé 1663" d="M1103.956,647.174c-30.186,0-71.553-14.113-121.394-41.88-76.466-42.6-164.869-112.351-248.923-196.4A1481.451,1481.451,0,0,1,629.983,294.154c-53.492-66.083-93.517-128.524-115.745-180.573C490.69,58.444,489.047,18.5,509.488-1.945c22.75-22.748,68.968-18.246,133.66,13.019,60.922,29.445,141.134,86.816,214.631,151.8l-15.576.084c-72.7-64.284-144.312-112.109-204.275-141.09C579.112-6.554,536.5-12,517.97,6.537c-34.288,34.286,15.608,149.455,121.336,280.071a1468.993,1468.993,0,0,0,102.814,113.8C825.412,483.7,912.874,552.742,988.4,594.816c72.378,40.323,126.174,51.163,147.594,29.744,32.361-32.363-6.253-131.983-101.335-254.7l1.213-15.334c102.044,131.7,146.585,240.532,108.6,278.514C1135.021,642.492,1121.341,647.174,1103.956,647.174Z" transform="translate(-362.54 -16.76) rotate(7)"/>
      </g>
    </g>
    <circle id="Ellipse_113" data-name="Ellipse 113" cx="24.288" cy="24.288" r="24.288" transform="translate(127.079 2135.071) rotate(7)" fill="#246fc9"/>
    <circle id="Ellipse_114" data-name="Ellipse 114" cx="16.713" cy="16.713" r="16.713" transform="translate(609.927 2355.778) rotate(7)" fill="#246fc9"/>
  </g>
</svg>
