<svg xmlns="http://www.w3.org/2000/svg" width="819.1596" height="701.4024" viewBox="0 0 819.1596 701.4024"><defs><style>.a{fill:#ddd8cb;}.b{fill:#376fb7;}.c{fill:#010101;}</style></defs><title>globe</title><ellipse class="a" cx="422.3827" cy="456.1722" rx="216.2143" ry="199.9088" transform="translate(-38.9892 -36.4683) rotate(-4.0855)"/><path class="b" d="M543.0677,289.0267C504.729,265.509,457.8468,253.2211,408.14,256.7715c-119.1084,8.5075-209.2882,104.679-201.4223,214.805a186.0964,186.0964,0,0,0,8.5092,43.9012c2.5566-50.2117,11.0632-73.172,41.3581-75.845,35.9288-3.17,68.8542,11.624,80.3116-11.6241s6.3813-70.801,49.6664-108.0768C403.0708,305.716,456.3075,272.669,543.0677,289.0267Z" transform="translate(-7.5625 -67.7202)"/><path class="b" d="M595.8723,335.0866c-19.4136,17.0122-29.1062,44.5462-16.5016,69.6739,14.312,28.5318,4.6157,70.0951-10.6,82.2676-83.9639,67.1734-104.01-30.8559-146.3885-11.4665-52.8344,24.173-29.4791,116.2405-54.674,134.2049-13.5,9.6256-38.6755,14.6913-67.4256,12.6879,38.596,24.0853,86.0251,36.7126,136.3422,33.1186,119.1083-8.5075,209.2882-104.679,201.4223-214.805A188.2811,188.2811,0,0,0,595.8723,335.0866Z" transform="translate(-7.5625 -67.7202)"/><path class="c" d="M90.0085,720.4165c-36.95,1.8774-62.5594-6.0046-74.6847-23.6044-33.146-48.1091,41.4072-154.87,194.3133-273.9714l-2.0462,13.01C64.7232,547.1336-2.2975,648.8438,26.0583,690.001c17.4085,25.2678,75.7813,24.679,160.1531-1.6136,88.07-27.446,194.6421-79.4071,300.0862-146.31S683.2987,401.4214,744.1062,334.4064c58.2525-64.2,81.6793-115.5139,64.2708-140.7817-15.0071-21.7811-60.28-24.4839-127.4887-7.6154-59.3582,14.9-126.012,38.4057-201.1257,76.7148l-17.12-3.4956c77.1878-39.3856,156.2454-70.3681,215.04-85.1258,73.9985-18.577,122.9035-14.1791,141.429,12.7109,21.1258,30.6625-2.0727,85.9379-65.3219,155.6443C692.2383,410.2929,599.751,484.8271,493.3613,552.33,386.9738,619.8333,279.2862,672.3093,190.1389,700.0909,151.1125,712.2534,117.4341,719.0235,90.0085,720.4165Z" transform="translate(-7.5625 -67.7202)"/><path class="c" d="M710.5115,769.1226c-31.9166.002-75.6513-14.9223-128.35-44.2806C501.3157,679.8029,407.8485,606.0556,318.98,517.1869A1566.65,1566.65,0,0,1,209.3841,395.8784C152.8283,326.0082,110.5115,259.99,87.0085,204.96c-24.8961-58.2946-26.6329-100.5309-5.02-122.1423,24.052-24.0531,72.9187-19.2926,141.3163,13.7633,64.4121,31.1313,149.219,91.79,226.927,160.5015l-16.4674.0881C356.9,189.2051,281.1841,138.64,217.7864,107.9984,155.5991,77.9424,110.5518,72.183,90.9548,91.7831,54.7029,128.034,107.4569,249.8017,219.2414,387.8992a1553.6232,1553.6232,0,0,0,108.7041,120.32C416.0093,596.2829,508.4837,669.28,588.333,713.7638c76.5244,42.6336,133.4021,54.0946,156.05,31.4492,34.2158-34.2169-6.6112-139.5453-107.1391-269.29l1.2818-16.2123c107.892,139.2482,154.9829,254.31,114.823,294.4691C743.3569,764.1722,728.8908,769.1226,710.5115,769.1226Z" transform="translate(-7.5625 -67.7202)"/><circle class="b" cx="77.1048" cy="110.0651" r="25.6797"/><circle class="b" cx="742.3202" cy="267.3664" r="17.6699"/></svg>