<svg xmlns="http://www.w3.org/2000/svg" width="12" height="16" viewBox="0 0 12 16"><g><g><g><path fill="#186c46" d="M10.29 3.696H6.359v6.612l1.76-1.735a.48.48 0 0 1 .677.004.48.48 0 0 1-.004.676L6.22 11.79a.486.486 0 0 1-.519.1.51.51 0 0 1-.15-.1L2.977 9.253a.477.477 0 0 1-.004-.676.477.477 0 0 1 .677-.004l1.76 1.735V3.696H1.47c-.808 0-1.47.662-1.47 1.47v8.82c0 .81.662 1.471 1.47 1.471h8.82c.81 0 1.47-.662 1.47-1.47v-8.82c0-.81-.66-1.47-1.47-1.47z"/></g><g><path fill="#186c46" d="M6.358.646a.477.477 0 1 0-.955 0v3.05h.955z"/></g></g></g></svg>