<svg xmlns="http://www.w3.org/2000/svg" width="22.099" height="28.729" viewBox="0 0 22.099 28.729">
  <g id="ios-download" transform="translate(-96 -48)">
    <path id="Tracé_2077" data-name="Tracé 2077" d="M115.336,144h-7.389v12.424l3.308-3.26a.9.9,0,1,1,1.264,1.278l-4.834,4.765a.912.912,0,0,1-.628.255.857.857,0,0,1-.345-.069.959.959,0,0,1-.283-.186h0l-4.834-4.765a.9.9,0,1,1,1.264-1.278l3.308,3.26V144h-7.4A2.77,2.77,0,0,0,96,146.762v16.574a2.77,2.77,0,0,0,2.762,2.762h16.574a2.77,2.77,0,0,0,2.762-2.762V146.762A2.77,2.77,0,0,0,115.336,144Z" transform="translate(0 -89.37)" fill="#faf5ef"/>
    <path id="Tracé_2078" data-name="Tracé 2078" d="M244.8,48.9a.9.9,0,0,0-1.8,0V54.63h1.8Z" transform="translate(-136.848 0)" fill="#faf5ef"/>
  </g>
</svg>
