<svg xmlns="http://www.w3.org/2000/svg" width="294" height="612" viewBox="0 0 294 612"><path fill="#132d7f" d="M219.532 74.787V45H294v29.787z"/><path fill="#21232b" d="M256.766 119.468V89.68H294v29.787z"/><path fill="#132d7f" d="M219.532 164.149v-29.787H294v29.787zM256.766 208.83v-29.788H294v29.788z"/><path fill="#21232b" d="M219.532 253.51v-29.786H294v29.787zM256.766 298.192v-29.788H294v29.788zM219.532 342.872v-29.787H294v29.787z"/><path fill="#132d7f" d="M167.404 298.192v-29.788h74.468v29.788z"/><path fill="#21232b" d="M78.042 387.553v-29.787h74.469v29.787zM256.766 387.553v-29.787H294v29.787z"/><path fill="#132d7f" d="M219.532 432.234v-29.787H294v29.787z"/><path fill="#21232b" d="M.042 143.787V114h74.469v29.787zM219.532 476.787V447H294v29.787zM256.766 521.468V491.68H294v29.787z"/><path fill="#132d7f" d="M219.532 566.15v-29.788H294v29.787z"/><path fill="#21232b" d="M256.766 610.83v-29.788H294v29.788zM55.468 566.15v-29.788h74.468v29.787z"/><path fill="#132d7f" d="M115.766 119.468V89.68H153v29.787zM.404 298.192v-29.788h74.468v29.788zM129.766 521.468V491.68H167v29.787zM148.532 209.149v-29.787H223v29.787z"/><path fill="#21232b" d="M167.532 611.15v-29.788H242v29.787zM256.766 30.468V.68H294v29.787zM115.766 30.468V.68H153v29.787z"/></svg>