<svg xmlns="http://www.w3.org/2000/svg" xmlns:xlink="http://www.w3.org/1999/xlink" width="541.379" height="314.892" viewBox="0 0 541.379 314.892">
  <defs>
    <filter id="Tracé_1379" x="22.044" y="16.424" width="184.823" height="162.815" filterUnits="userSpaceOnUse">
      <feOffset dy="20" input="SourceAlpha"/>
      <feGaussianBlur stdDeviation="10.5" result="blur"/>
      <feFlood flood-opacity="0.467"/>
      <feComposite operator="in" in2="blur"/>
      <feComposite in="SourceGraphic"/>
    </filter>
    <filter id="Tracé_1380" x="199.401" y="74.296" width="202.523" height="165.967" filterUnits="userSpaceOnUse">
      <feOffset dy="20" input="SourceAlpha"/>
      <feGaussianBlur stdDeviation="10.5" result="blur-2"/>
      <feFlood flood-opacity="0.467"/>
      <feComposite operator="in" in2="blur-2"/>
      <feComposite in="SourceGraphic"/>
    </filter>
    <filter id="Tracé_1381" x="61.803" y="18.206" width="165.535" height="139.221" filterUnits="userSpaceOnUse">
      <feOffset dy="20" input="SourceAlpha"/>
      <feGaussianBlur stdDeviation="10.5" result="blur-3"/>
      <feFlood flood-opacity="0.467"/>
      <feComposite operator="in" in2="blur-3"/>
      <feComposite in="SourceGraphic"/>
    </filter>
    <filter id="Tracé_1382" x="0" y="0" width="541.379" height="314.892" filterUnits="userSpaceOnUse">
      <feOffset dy="20" input="SourceAlpha"/>
      <feGaussianBlur stdDeviation="10.5" result="blur-4"/>
      <feFlood flood-opacity="0.467"/>
      <feComposite operator="in" in2="blur-4"/>
      <feComposite in="SourceGraphic"/>
    </filter>
    <filter id="Tracé_1383" x="233.495" y="99.104" width="152.284" height="123.23" filterUnits="userSpaceOnUse">
      <feOffset dy="20" input="SourceAlpha"/>
      <feGaussianBlur stdDeviation="10.5" result="blur-5"/>
      <feFlood flood-opacity="0.467"/>
      <feComposite operator="in" in2="blur-5"/>
      <feComposite in="SourceGraphic"/>
    </filter>
    <filter id="Tracé_1384" x="269.15" y="136.901" width="105.817" height="93.268" filterUnits="userSpaceOnUse">
      <feOffset dy="20" input="SourceAlpha"/>
      <feGaussianBlur stdDeviation="10.5" result="blur-6"/>
      <feFlood flood-opacity="0.467"/>
      <feComposite operator="in" in2="blur-6"/>
      <feComposite in="SourceGraphic"/>
    </filter>
  </defs>
  <g id="Groupe_1931" data-name="Groupe 1931" transform="translate(-463.553 -560.015)">
    <g id="Groupe_963" data-name="Groupe 963">
      <g transform="matrix(1, 0, 0, 1, 463.55, 560.01)" filter="url(#Tracé_1379)">
        <path id="Tracé_1379-2" data-name="Tracé 1379" d="M58.484,79.612a1.783,1.783,0,0,1-1.919-3.007L88.833,56c-4.3-3.506-8.68-7.067-13.1-10.654L27.307,75.309a1.784,1.784,0,0,1-1.878-3.033L72.8,42.964C54.309,27.982,35.368,12.774,19.345,0a18.991,18.991,0,0,0-4.688,1.915C8.329,5.689,2.915,16.813.864,30.258c-2.37,15.519.232,30.158,6.627,37.3,9.846,10.989,61.479,25.6,79.9,24.337,10.16-.683,19.87-5.582,28.294-13.842-7.358-6.1-15.467-12.758-23.947-19.679Z" transform="matrix(1, 0.07, -0.07, 1, 59.96, 27.92)" fill="none"/>
      </g>
      <g transform="matrix(1, 0, 0, 1, 463.55, 560.01)" filter="url(#Tracé_1380)">
        <path id="Tracé_1380-2" data-name="Tracé 1380" d="M49.171,2.868c-1.731-.341-3.285-.646-4.619-.917l-.546-.112A80.557,80.557,0,0,0,27.836,0c-8.908,0-14.39,2.094-17.684,4.273C5.98,7.035,3.386,11.192,2.225,16.981c-5.471,27.282-.712,48.967,12.735,58.01,15.085,10.145,66.8,22.55,82.27,17.9,11.313-3.4,24.243-17.236,31.44-33.65,4.551-10.379,5.86-19.949,3.418-24.976C124,17.619,67.679,6.516,49.171,2.868ZM109.5,61.2,72.068,85.1A1.783,1.783,0,1,1,70.149,82.1l37.432-23.908a1.783,1.783,0,1,1,1.919,3Zm8.346-35.333L35.714,76.68a1.783,1.783,0,1,1-1.876-3.033l82.131-50.818a1.784,1.784,0,0,1,1.878,3.033Z" transform="matrix(1, 0.07, -0.07, 1, 237.45, 85.8)" fill="none"/>
      </g>
      <g transform="matrix(1, 0, 0, 1, 463.55, 560.01)" filter="url(#Tracé_1381)">
        <path id="Tracé_1381-2" data-name="Tracé 1381" d="M70.972,17.764l-.546-.175c-1.286-.414-2.773-.9-4.435-1.448C53.482,12.03,23.071,2.042,0,0c11.29,9.04,28.2,22.618,45.81,36.9L69.333,22.342a1.784,1.784,0,0,1,1.876,3.035l-22.465,13.9q2.681,2.175,5.366,4.36C66.763,53.928,77.05,62.458,85.433,69.559A94.5,94.5,0,0,0,96.082,49.893c2.316-5.757,2.445-10.675.392-15.037C94.207,30.042,87.944,23.169,70.972,17.764Z" transform="matrix(1, 0.07, -0.07, 1, 98.15, 29.71)" fill="none"/>
      </g>
      <g transform="matrix(1, 0, 0, 1, 463.55, 560.01)" filter="url(#Tracé_1382)">
        <path id="Tracé_1382-2" data-name="Tracé 1382" d="M457.694,190.324c-.537-3.2,2.675-4.326-60.345-55.587-23.911-19.447-47.991-38.716-57.211-46.078C330.1,68.486,287.572,57.638,247.25,49.691c-1.7-.337-3.228-.637-4.542-.9l-.5-.1c-16.167-3.333-29.38-2.746-39.415,1.7-9.8-7.03-28.32-11.816-43.2-11-5.83-8.826-16.514-15.756-31.844-20.637l-.5-.159c-1.262-.407-2.725-.888-4.36-1.427C84.158,4.44,41.825-6.945,21.575,5.131,11.431,11.176,3.732,25.548.982,43.574c-2.375,15.567-.968,36.6,10.1,48.969,13.355,14.907,65.053,29.151,88.377,29.149,1.1,0,2.142-.032,3.109-.1,14.054-.943,27.278-7.636,38.349-18.9,6.554,5.5,12.145,10.265,16.375,13.99a23.449,23.449,0,0,1,7.92,17.994c-.062,3.931-.178,8.314-.3,12.325a10.9,10.9,0,0,0,6.966,10.506l1.443.556a5.551,5.551,0,0,0,7.534-5.662c-.963-10.8-5.145-26.656-5.823-30.709-.4-2.4.5-4.868-26.283-28.221A107.719,107.719,0,0,0,161.767,69.8a35.692,35.692,0,0,0,2.759-16.23,68.827,68.827,0,0,1,25.981,6.038,34.964,34.964,0,0,0-6.951,15.381c-6.743,33.621.094,60.1,18.76,72.655,14.288,9.607,55.453,21.27,81.059,21.268a47.63,47.63,0,0,0,13.281-1.544c18.841-5.662,33.537-25.941,40.4-41.584a70.307,70.307,0,0,0,5.52-19.207c33.5,26.816,75.562,60.944,95.691,78.3a31.308,31.308,0,0,1,10.868,24.328c-.018.938-.039,1.887-.062,2.841a6.831,6.831,0,0,0,6.573,7l3,.838a4.335,4.335,0,0,0,5.5-4.567C463.417,207.451,458.324,194.088,457.694,190.324ZM101.619,107.361c-18.426,1.264-70.059-13.348-79.9-24.337-6.4-7.139-9-21.778-6.627-37.3,2.051-13.445,7.465-24.569,13.792-28.343a18.989,18.989,0,0,1,4.688-1.915C49.591,28.243,68.532,43.451,87.022,58.433L39.653,87.744a1.784,1.784,0,0,0,1.878,3.033L89.956,60.812q6.631,5.38,13.1,10.654L70.788,92.074a1.783,1.783,0,0,0,1.919,3.007l33.26-21.241c8.479,6.921,16.588,13.58,23.947,19.679C121.489,101.779,111.778,106.678,101.619,107.361Zm46.913-42.886a94.5,94.5,0,0,1-10.648,19.667c-8.384-7.1-18.67-15.631-31.323-25.923q-2.683-2.186-5.366-4.36l22.465-13.9a1.784,1.784,0,0,0-1.876-3.035L98.26,51.478C80.652,37.2,63.74,23.622,52.45,14.582c23.071,2.042,53.482,12.03,65.991,16.141,1.662.547,3.149,1.034,4.435,1.448l.546.175c16.972,5.405,23.236,12.278,25.5,17.092C150.976,53.8,150.848,58.718,148.531,64.475ZM323.99,120.058c-7.2,16.414-20.127,30.251-31.44,33.65-15.471,4.653-67.184-7.752-82.27-17.9-13.446-9.043-18.206-30.729-12.735-58.01,1.161-5.789,3.756-9.946,7.927-12.708,3.294-2.179,8.776-4.273,17.684-4.273a80.559,80.559,0,0,1,16.171,1.839l.546.112c1.334.271,2.887.576,4.619.917,18.508,3.649,74.831,14.752,82.917,31.4C329.85,100.11,328.541,109.679,323.99,120.058Z" transform="matrix(1, 0.07, -0.07, 1, 46.85, 11.5)"/>
      </g>
      <g transform="matrix(1, 0, 0, 1, 463.55, 560.01)" filter="url(#Tracé_1383)">
        <path id="Tracé_1383-2" data-name="Tracé 1383" d="M82.977.268.846,51.086a1.783,1.783,0,0,0,1.876,3.033L84.854,3.3A1.784,1.784,0,0,0,82.977.268Z" transform="matrix(1, 0.07, -0.07, 1, 268.79, 110.6)"/>
      </g>
      <g transform="matrix(1, 0, 0, 1, 463.55, 560.01)" filter="url(#Tracé_1384)">
        <path id="Tracé_1384-2" data-name="Tracé 1384" d="M38.257.28.824,24.188a1.783,1.783,0,1,0,1.919,3.007L40.176,3.285a1.783,1.783,0,1,0-1.919-3Z" transform="matrix(1, 0.07, -0.07, 1, 302.57, 148.4)"/>
      </g>
    </g>
    <g id="Groupe_955" data-name="Groupe 955" transform="matrix(0.998, 0.07, -0.07, 0.998, 510.402, 571.515)">
      <g id="Groupe_956" data-name="Groupe 956" transform="translate(30.853 3.542)">
        <g id="Groupe_955-2" data-name="Groupe 955">
          <path id="Tracé_1372" data-name="Tracé 1372" d="M142.468,154.522l-1.443-.556a10.9,10.9,0,0,1-6.966-10.506c.125-4.011.241-8.4.3-12.325a23.45,23.45,0,0,0-7.92-17.994C103.559,92.989,41.06,42.465,0,9.764L7.779,0c.339.269,34.3,27.321,67.928,54.677,69.818,56.791,67.922,60.191,68.473,63.473.678,4.054,4.86,19.913,5.823,30.709A5.551,5.551,0,0,1,142.468,154.522Z" fill="#042033"/>
        </g>
      </g>
      <g id="Groupe_958" data-name="Groupe 958" transform="translate(328.43 85.522)">
        <g id="Groupe_957" data-name="Groupe 957">
          <path id="Tracé_1373" data-name="Tracé 1373" d="M130.215,134.363l-3-.838a6.831,6.831,0,0,1-6.573-7c.025-.954.045-1.9.063-2.841a31.306,31.306,0,0,0-10.868-24.328C86.744,79.448,34.774,37.459,0,9.764L7.777,0c.3.243,30.87,24.592,61.142,49.215,63.02,51.261,59.808,52.384,60.345,55.587.63,3.765,5.723,17.127,6.447,24.994A4.336,4.336,0,0,1,130.215,134.363Z" fill="#042033"/>
        </g>
      </g>
      <path id="Tracé_1374" data-name="Tracé 1374" d="M340.241,88.848c-9.86-20.3-52.541-31.185-92.991-39.157-1.7-.337-3.228-.637-4.542-.9l-.5-.1c-16.168-3.333-29.381-2.746-39.416,1.7-9.8-7.03-28.32-11.816-43.2-11-5.83-8.826-16.514-15.756-31.843-20.637l-.5-.159c-1.263-.407-2.725-.888-4.36-1.427C84.158,4.44,41.825-6.945,21.575,5.131,11.431,11.176,3.732,25.548.982,43.574c-2.375,15.567-.968,36.6,10.1,48.969,13.356,14.907,65.053,29.151,88.377,29.149,1.1,0,2.142-.032,3.108-.1,24.676-1.657,46.8-21.019,59.195-51.792a35.688,35.688,0,0,0,2.759-16.23,68.844,68.844,0,0,1,25.983,6.038,34.944,34.944,0,0,0-6.953,15.381c-6.743,33.621.095,60.1,18.761,72.655,14.288,9.607,55.453,21.27,81.059,21.268a47.632,47.632,0,0,0,13.281-1.544c18.841-5.662,33.538-25.941,40.4-41.584C340.8,117.249,346.194,101.1,340.241,88.848ZM148.531,64.475c-10.3,25.573-27.833,41.605-46.913,42.886-18.425,1.264-70.059-13.348-79.9-24.337-6.4-7.139-9-21.778-6.627-37.3,2.051-13.445,7.465-24.569,13.792-28.343,3.786-2.256,9.316-3.176,15.838-3.176,23.465,0,59.758,11.927,73.724,16.516,1.662.547,3.149,1.034,4.435,1.448l.546.175c16.972,5.405,23.235,12.278,25.5,17.092C150.976,53.8,150.848,58.718,148.531,64.475ZM323.99,120.058c-7.2,16.414-20.127,30.251-31.44,33.65-15.471,4.653-67.184-7.752-82.269-17.9-13.447-9.043-18.206-30.729-12.735-58.01,1.161-5.789,3.756-9.946,7.927-12.708,3.294-2.179,8.776-4.273,17.684-4.273a80.555,80.555,0,0,1,16.171,1.839l.546.112c1.334.271,2.887.576,4.619.917,18.507,3.649,74.831,14.752,82.917,31.4C329.85,100.11,328.541,109.679,323.99,120.058Z" transform="translate(0)"/>
      <g id="Groupe_959" data-name="Groupe 959" transform="translate(38.808 36.657)">
        <path id="Tracé_1375" data-name="Tracé 1375" d="M1.785,54.386a1.783,1.783,0,0,1-.94-3.3L82.975.267A1.784,1.784,0,1,1,84.851,3.3L2.723,54.121A1.784,1.784,0,0,1,1.785,54.386Z" fill="#ffeae1"/>
      </g>
      <g id="Groupe_960" data-name="Groupe 960" transform="translate(228.312 83.38)">
        <path id="Tracé_1376" data-name="Tracé 1376" d="M1.786,54.385a1.782,1.782,0,0,1-.94-3.3L82.976.268A1.784,1.784,0,1,1,84.854,3.3L2.722,54.119A1.777,1.777,0,0,1,1.786,54.385Z" fill="#ffeae1"/>
      </g>
      <g id="Groupe_961" data-name="Groupe 961" transform="translate(69.964 67.886)">
        <path id="Tracé_1377" data-name="Tracé 1377" d="M1.786,27.475a1.783,1.783,0,0,1-.961-3.287L38.257.28a1.783,1.783,0,0,1,1.919,3.007L2.743,27.195A1.778,1.778,0,0,1,1.786,27.475Z" fill="#ffeae1"/>
      </g>
      <g id="Groupe_962" data-name="Groupe 962" transform="translate(264.645 118.729)">
        <path id="Tracé_1378" data-name="Tracé 1378" d="M1.786,27.475a1.783,1.783,0,0,1-.961-3.287L38.257.28a1.783,1.783,0,1,1,1.919,3L2.743,27.195A1.777,1.777,0,0,1,1.786,27.475Z" fill="#ffeae1"/>
      </g>
    </g>
  </g>
</svg>
