<svg xmlns="http://www.w3.org/2000/svg" xmlns:xlink="http://www.w3.org/1999/xlink" width="1402.136" height="642.459" viewBox="0 0 1402.136 642.459">
  <defs>
    <clipPath id="clip-path">
      <rect id="Rectangle_1496" data-name="Rectangle 1496" width="1402.136" height="642.459" fill="none"/>
    </clipPath>
  </defs>
  <g id="Groupe_1932" data-name="Groupe 1932" transform="translate(0 -627.037)">
    <g id="Groupe_945" data-name="Groupe 945" transform="translate(0 2483.037)">
      <g id="Groupe_944" data-name="Groupe 944" transform="translate(0 -1856)" clip-path="url(#clip-path)">
        <path id="Tracé_1239" data-name="Tracé 1239" d="M.239-1447.909c74.488-3.286,97.549,43.406,122.687,47.1,37.244,5.477,43.663-9.866,71.2-13.145,46.008-5.477,153.475,93.331,248.66,97.492,200.462,8.763,380.11,204.843,690.114,26.29,98.106-56.506,244.278-98.588,269.473-98.588V-1856.5H-2.5Z" transform="translate(-0.239 1855.952)" fill="#246fc9"/>
        <path id="Tracé_1240" data-name="Tracé 1240" d="M1402.97-1619.629s-192.814-96.813-404.114-87.208c-192.794,8.763-566.331,175.267-766.793,175.267-81.179,0-190.055-33.508-236.063-54.868v-233.774c60.361,36.7,251.4,76.132,383.944,61.891s385.587-78.87,568.522-70.107,454.5,131.306,454.5,131.306Z" transform="translate(-0.382 1858.553)" fill="#2286d1"/>
        <path id="Tracé_1241" data-name="Tracé 1241" d="M268.128-1651.006c75.584-32.863,98.795-1.56,129.259,18.3s63.183,17.845,78.694,4.153,35.23-1.837,48.922,5.381,24.647,1.1,42.174-9.533,45.535,2.395,73.2-5.819,38.943,9.971,38.943,9.971L564.986-1552.8l-260.71,3.2Z" transform="translate(25.584 1874.194)" fill="#246fc9"/>
        <path id="Tracé_1242" data-name="Tracé 1242" d="M1367.469-1444.721c14.007,2.948,25.045,5.347,35.343,6.8-.03-.941-.061-5.475-.081-6.766,0-.061,0,0,0-.06-1-.156-1-.158-2.045-.335a57.05,57.05,0,0,0-.937-11.621c1.482.339,1.726.413,3.063.657a35.783,35.783,0,0,0,0-6.944c-4.415-.994-8.763-2.418-15.066-4.429.227-3.584.466-8.716.332-12.979,8.441,3.323,10.994,4.563,14.734,5.315a27.6,27.6,0,0,0,0-7.512c-1.031-.392-.881-.359-2.931-1.194-.034-2.9.488-7.107.364-11.775,1.421.7,1.578.8,2.639,1.29a19.245,19.245,0,0,0,.048-7.241c-1.453-.73-1.933-.976-3.632-1.827-3.137-1.574-6.759-3.443-10.827-5.527a56.433,56.433,0,0,0,.692-13.167c6.209,3.7,10.908,6.734,14.036,8.825a22.364,22.364,0,0,1-.037-6.79c-10.573-7.1-31.675-20.126-62.869-34.095l-.005-.009-.007,0q-8.225-3.684-17.365-7.424c-52.3-21.3-134.908-50.971-241.61-50.971-102.855,0-217.4,36.606-328.168,72.006-88.681,28.341-172.443,55.112-240.7,59.455-64.371,4.1-190.625-12.443-287.314-29.288-115.36-20.1-208.069-43.636-225.452-57.24l-6.752,8.626c23.389,18.3,138.693,43.442,230.326,59.406,87.05,15.166,198.055,30.074,267.262,30.074,8.154,0,15.739-.207,22.626-.645,66.827-4.252,147.28-29.282,232.658-56.54,3.942,13.907,8.716,38.02,10.573,47.669-94.8,44.141-239.822,103.861-423.487,94.15l3.36,11.656c13.848.732,23.694.381,37.45.381,76.179,0,151.22-11.264,228.167-34.166,76.444-22.753,140.4-53.11,187.1-75.275,20.8-9.875,38.772-18.4,53.793-24.426,93.459-37.472,188.029-58.661,266.29-59.661a595.492,595.492,0,0,1,207.769,34.154c1.346,5.056,1.947,12.539,2.209,17.637-46.9-15.238-109.336-29.624-183.2-27.468-75.561,2.213-157.62,25.026-237.307,65.976l-8.32,4.279c-79.45,40.864-244.775,125.9-328.658,141.625l2.019,10.766C649-1335.371,815.286-1420.9,895.2-1462l8.314-4.275c78.245-40.208,158.683-62.605,232.622-64.77.174-.005.347-.008.523-.012.777,3.309,1.98,8.077,3.568,13.268,1.37,4.48,2.654,9.088,3.607,12.617-56.828,6.2-113.99,25.994-185.1,55.2-17.667,7.256-37.949,18.915-61.431,32.412-65.314,37.543-154.764,88.961-287.162,105.71l1.374,10.869C746.088-1318,836.64-1370.052,902.757-1408.058c23.147-13.3,43.136-24.8,60.133-31.777,53.367-21.919,98.7-38.459,141.79-47.805,2.062,10.462,4.848,23.81,6.351,30.957-33.354,9.218-68.55,22.372-105.321,39.4-11.753,5.442-25.907,13.432-42.3,22.683-60.739,34.289-152.528,86.1-284.79,104.023l1.471,10.855c134.344-18.2,227.236-70.639,288.7-105.34,16.183-9.136,30.159-17.025,41.512-22.282,51.92-24.039,100.551-40.23,145.1-48.343,3.624,12.271,10.271,35.719,10.347,35.99l10.539-2.987c-.3-1.069-6.344-22.377-10.007-34.837q13.309-2.059,26.1-3.123c37.737-3.134,72.308-1.069,102.991,2.936-.557,9.164.368,26.461.411,27.23l10.937-.595c-.009-.176-.88-16.422-.46-25.115,13.385,1.991,25.954,4.3,37.661,6.617-1.376,8.146.154,21.5.224,22.1l7.616-.889c-.432-3.7-1.254-13.9-.321-19.691C1357-1446.923,1362.351-1445.8,1367.469-1444.721Zm-21.609-51.822c14.3,5.076,26.42,9.881,36.122,13.729l.833.331c-.087,3.222-.777,8.358-1.336,13.061-2.191-.7-4.474-1.415-6.874-2.155-8.25-2.539-17.567-5.54-27.874-8.7A61.376,61.376,0,0,0,1345.86-1496.543Zm-20.163-15.772a139.289,139.289,0,0,0-1.617-17.211c15.706,5.808,29.431,11.634,41.06,16.93a73.937,73.937,0,0,1,.211,14.883C1353.944-1502.215,1340.681-1507.27,1325.7-1512.315Zm68.559,54.247c.9,3.152.448,8.256.086,11.816-7.352-1.428-15.541-3.24-24.523-5.133.011-3.12.027-8.86.013-13.914l.954.292C1379.7-1462.26,1387.564-1459.839,1394.255-1458.068Zm-.721-40.848a103.266,103.266,0,0,1,1.668,13.2c-2.985-1.233-6.225-2.573-9.644-3.928-4.171-1.655-8.782-3.517-13.806-5.524a104.74,104.74,0,0,0,.308-14.228C1380.567-1505.4,1387.738-1501.822,1393.534-1498.916Zm-9.628-26.2a36.52,36.52,0,0,1,.022,13.928c-10.614-5.393-23.856-11.92-39.5-18.6a33.861,33.861,0,0,0-.367-15.841C1360.329-1538.134,1373.69-1531.005,1383.907-1525.12ZM1108.9-1577.271c-79.578,1.019-175.545,22.486-270.227,60.448-15.336,6.149-33.445,14.744-54.414,24.7q-8.482,4.026-17.658,8.357c-2.16-11.112-6.559-32.87-10.369-46.211l.245-.078c109.971-35.145,223.687-71.487,324.833-71.487,14.477,0,28.526.49,42.151,1.364,3.222,5.228,6.235,15.071,8.167,23.151Q1120.293-1577.4,1108.9-1577.271Zm186.309,29.4c-49.721-15.286-100.439-25.817-152.23-28.662a138.107,138.107,0,0,0-6.853-22.721c79.043,6.608,142.4,26.354,184.406,43.424q9.525,3.871,18.071,7.718a30.161,30.161,0,0,1,1.736,16.595C1326.907-1537.117,1311.822-1542.761,1295.2-1547.87Zm9.864,38.3c12.151,3.435,23.367,7.012,33.587,10.515a63.229,63.229,0,0,1,1.7,16.84c-10.856-3.266-22.718-6.634-35.5-9.81C1304.98-1495.8,1305.169-1503.113,1305.068-1509.571Zm-7.715-2.126c.169,5.9.016,13.319-.113,17.833-37.595-8.827-82.611-15.542-133.242-12.941-3.036.156-6.069.366-9.1.6-.994-3.734-2.517-9.291-4.2-14.787-1.159-3.789-2.108-7.377-2.821-10.263A559.008,559.008,0,0,1,1297.353-1511.7Zm-23.794,41.99a404.6,404.6,0,0,0-82.075-1.856,428.179,428.179,0,0,0-69.852,12.065c-1.526-7.26-4.223-20.192-6.219-30.324a361.439,361.439,0,0,1,49.147-6.042,500.552,500.552,0,0,1,108.221,6.42A124.158,124.158,0,0,1,1273.56-1469.708Zm46.064,7.509c-11.6-2.318-23.868-4.51-36.763-6.3-.332-4.308-1.02-12.613-1.873-19.509,14.7,2.677,28.386,5.771,40.945,8.969A59.72,59.72,0,0,1,1319.624-1462.2Zm6.952,1.416a129.133,129.133,0,0,0,.451-16.936q7.126,1.873,13.724,3.75l-.033.083a3.8,3.8,0,0,0,1.208.25c8.269,2.352,15.906,4.657,22.88,6.794.025,4.807.011,10.743,0,14.387C1353.1-1454.98,1340.329-1457.926,1326.576-1460.782Z" transform="translate(-0.676 1879.234)" fill="#7db6ef"/>
        <path id="Tracé_1243" data-name="Tracé 1243" d="M998.261-1394.684c-153.053,82.253-304.111,118.98-318.7,122.415,109.114,28.157,231.958,33.018,387.709-56.69,98.106-56.506,244.278-98.588,269.473-98.588v-12.233C1252.872-1450.09,1137.733-1469.638,998.261-1394.684Z" transform="translate(64.843 1894.742)" fill="#2286d1"/>
        <path id="Tracé_1244" data-name="Tracé 1244" d="M957.306-1350s44.942-35.509,57.357-45.417,29.21-17.729,29.21-17.729l67.526,10.7s-18.52,8.88-32.4,23.964-47.544,37.792-47.544,37.792Z" transform="translate(91.345 1898.256)" fill="#7db6ef"/>
        <circle id="Ellipse_68" data-name="Ellipse 68" cx="41.478" cy="41.478" r="41.478" transform="translate(630.895 187.322)" fill="#2d96d6"/>
        <g id="Groupe_895" data-name="Groupe 895" transform="translate(640.667 196.728)">
          <path id="Tracé_1245" data-name="Tracé 1245" d="M616.932-1612.265a32.231,32.231,0,0,1-7.371-.85,1.1,1.1,0,0,1-.815-1.318,1.1,1.1,0,0,1,1.317-.815,30.033,30.033,0,0,0,6.869.792,29.915,29.915,0,0,0,29.882-29.881,29.915,29.915,0,0,0-29.882-29.881,29.915,29.915,0,0,0-29.881,29.881,29.7,29.7,0,0,0,2.348,11.631,1.1,1.1,0,0,1-.582,1.436,1.1,1.1,0,0,1-1.436-.582,31.889,31.889,0,0,1-2.521-12.485,32.108,32.108,0,0,1,32.072-32.072A32.108,32.108,0,0,1,649-1644.336,32.107,32.107,0,0,1,616.932-1612.265Z" transform="translate(-584.86 1676.408)" fill="#ffeae1"/>
        </g>
        <path id="Tracé_1246" data-name="Tracé 1246" d="M1106.84-1454.943c-13.145-10.855-36.374-7.192-34.506-22.539,2.191-17.991,33.019-7.38,34.506-15.393,3.834-20.673-30.254-35.53-20.265-50.249s35.258-7.376,41.809-14.059c12.446-12.7-12.416-66.562,50.432-50.343,13.991,3.611,35.612-18.562,60.022-2.966,39.435,25.195-46.555,60.4-49.294,75.584-1.182,6.557,9.311,13.145,5.477,20.813-5.733,11.468-19.17-1.1-23,8.763s-1.643,20.813-24.647,24.1-29.576,0-33.41,7.668,7.321,15.133,7.321,15.133l-9.148,6.852S1108.049-1453.945,1106.84-1454.943Z" transform="translate(102.31 1878.889)" fill="#062b3f"/>
        <path id="Tracé_1247" data-name="Tracé 1247" d="M413.767-1711.677l95.028-45.947s.822,27.325,18.348,34.993,50.248,6.19,62.987,16.979c9.019,7.64,10.662,19.183,10.662,19.183s-27.4,6.938-43.744,15.519c-12.607,6.621-40.786,23.369-40.786,23.369s1.065-17.54-12.1-25.208-55.887-10.415-72.866-20.813C424.8-1697.575,413.767-1711.677,413.767-1711.677Z" transform="translate(39.481 1865.387)" fill="#7db6ef"/>
        <path id="Tracé_1248" data-name="Tracé 1248" d="M542.908-1559.758l65.278-25.742,55.319,19.17L593.4-1521.966Z" transform="translate(51.803 1881.811)" fill="#7db6ef"/>
        <path id="Tracé_1249" data-name="Tracé 1249" d="M604.884-1574.116s63.8-35.566,63.667-33.375-9.444,43.269-9.444,43.269L589-1519.858Z" transform="translate(56.202 1879.703)" fill="#2d96d6"/>
        <ellipse id="Ellipse_69" data-name="Ellipse 69" cx="19.718" cy="6.141" rx="19.718" ry="6.141" transform="translate(1230.589 483.53) rotate(-12.908)" fill="#042033"/>
        <path id="Tracé_1250" data-name="Tracé 1250" d="M1104.333-1471.167" transform="translate(105.374 1892.72)" fill="#173199"/>
        <circle id="Ellipse_70" data-name="Ellipse 70" cx="56.166" cy="56.166" r="56.166" transform="translate(1137.172 178.415)" fill="#2d96d6"/>
        <path id="Tracé_1251" data-name="Tracé 1251" d="M1198.772-1604.317c-18.515,2.008-29.684,14.788-24.635,32.316s-7.24,21.177-29.218,27.932-7.233,16.613,5.029,32.863-9.494,12.4-28.329,19.024c-27.981,9.848-13.441,31.894-9.375,37.244l5.924-4.439s-11.155-7.465-7.321-15.133,10.406-4.382,33.41-7.668,20.813-14.24,24.647-24.1,17.27,2.7,23-8.763c3.834-7.668-6.659-14.256-5.477-20.813,1.448-8.028,26.163-21.652,43.313-36.434,2.707-9.686,4.292-18.307.12-25.042C1222.386-1609.408,1217.287-1606.326,1198.772-1604.317Z" transform="translate(105.422 1879.834)" fill="#042033"/>
        <circle id="Ellipse_71" data-name="Ellipse 71" cx="15.167" cy="15.167" r="15.167" transform="translate(1305.739 301.915)" fill="#2d96d6"/>
        <path id="Tracé_1252" data-name="Tracé 1252" d="M1133.769-1470.348c-12.2-4.836-20.938-3.186-28.516,4.347-5.659,5.625-4.686,14.167-4.686,14.167s24.927,33,27.894,35.4c0,0,10.073,4.706,18.936-.537,8.141-4.815,5.35-13.37,5.35-13.37Z" transform="translate(105.009 1892.537)" fill="#7db6ef"/>
        <path id="Tracé_1256" data-name="Tracé 1256" d="M1134.6-1423.425c-3.286,1.643-5.7,1.106-7.641,6.989,0,0,10.073,4.706,18.936-.537,8.141-4.815,5.35-13.37,5.35-13.37l-18.978-40.006c-6.12-2.425-11.367-3.217-16.034-2.456,12.569,7.137,21.332,14.966,17.818,21.994-3.56,7.12-3.834,11.789,3.286,17.807S1137.886-1425.068,1134.6-1423.425Z" transform="translate(106.509 1892.537)" fill="#62a6dd"/>
        <g id="Groupe_900" data-name="Groupe 900" transform="translate(440.35 164.969)">
          <path id="Tracé_1257" data-name="Tracé 1257" d="M487.436-1648.607a1.094,1.094,0,0,1-.876-.436c-.092-.122-9.411-12.157-33.8-15.971-24.867-3.89-36.13-15.582-50.6-38.711a1.1,1.1,0,0,1,.347-1.51,1.1,1.1,0,0,1,1.509.347c14.112,22.555,25.056,33.95,49.082,37.708,25.345,3.964,34.823,16.3,35.213,16.823a1.092,1.092,0,0,1-.22,1.53A1.087,1.087,0,0,1,487.436-1648.607Z" transform="translate(-401.993 1705.401)" fill="#7db6ef"/>
        </g>
        <g id="Groupe_908" data-name="Groupe 908" transform="translate(893.682 10.431)">
          <path id="Tracé_1258" data-name="Tracé 1258" d="M815.836-1846.478s1.839,24.241,4.567,40.3,6.6,25.637,6.6,25.637,54.7-1.647,77.99,1.906,78.435,21.812,78.435,21.812-9.6-19.492-7.7-38.623a275.134,275.134,0,0,1,4.432-30.364s-60.821-11.765-81.086-14.313C878.254-1842.746,815.836-1846.478,815.836-1846.478Z" transform="translate(-815.836 1846.478)" fill="#7db6ef"/>
          <g id="Groupe_901" data-name="Groupe 901" transform="translate(8.341 7.117)">
            <path id="Tracé_1259" data-name="Tracé 1259" d="M972.7-1766l-1.168-.377c-.508-.164-51-16.4-69.651-19.242s-67.783-1.786-68.28-1.774l-.3.007-.167-.25c-.153-.23-3.776-5.773-5.985-18.773-2.193-12.912-3.638-32.755-3.653-32.955l-.044-.618.619.032c.575.028,57.781,2.969,74.507,5.073,16.28,2.047,72.878,12.487,73.449,12.593l.564.1-.13.558a233.752,233.752,0,0,0-4.19,26.883,60.536,60.536,0,0,0,3.93,27.618Zm-117.9-22.689c15.844,0,36.532.352,47.246,1.987,17.185,2.624,61.159,16.519,68.713,18.929a62.6,62.6,0,0,1-3.58-27.072,240.718,240.718,0,0,1,4.089-26.465c-5.958-1.1-57.449-10.545-72.828-12.479-15.745-1.98-67.531-4.708-73.806-5.035.264,3.462,1.628,20.656,3.6,32.232,1.908,11.238,4.948,16.887,5.662,18.1C835.611-1788.529,844.1-1788.689,854.8-1788.689Z" transform="translate(-823.45 1839.981)" fill="#246fc9"/>
          </g>
          <g id="Groupe_902" data-name="Groupe 902" transform="translate(29.399 8.835)">
            <path id="Tracé_1260" data-name="Tracé 1260" d="M851.53-1788.157c-.093-.352-9.252-35.413-8.843-50.255l1.1.03c-.405,14.687,8.715,49.6,8.807,49.948Z" transform="translate(-842.674 1838.413)" fill="#246fc9"/>
          </g>
          <g id="Groupe_903" data-name="Groupe 903" transform="translate(82.817 12.742)">
            <path id="Tracé_1261" data-name="Tracé 1261" d="M894.93-1786.595c-.039-.378-3.89-37.909-3.457-48.251l1.1.045c-.43,10.263,3.412,47.718,3.451,48.1Z" transform="translate(-891.439 1834.846)" fill="#246fc9"/>
          </g>
          <g id="Groupe_904" data-name="Groupe 904" transform="translate(56.023 10.465)">
            <path id="Tracé_1262" data-name="Tracé 1262" d="M872.56-1788.091c-.051-.42-5.079-42.047-5.581-48.753l1.094-.081c.5,6.682,5.524,48.283,5.573,48.7Z" transform="translate(-866.979 1836.925)" fill="#246fc9"/>
          </g>
          <g id="Groupe_905" data-name="Groupe 905" transform="translate(107.696 17.293)">
            <path id="Tracé_1263" data-name="Tracé 1263" d="M915.418-1781.725c-2.28-13.5-.792-48.614-.777-48.966l1.1.047c-.016.352-1.5,35.354.761,48.737Z" transform="translate(-914.151 1830.691)" fill="#246fc9"/>
          </g>
          <g id="Groupe_906" data-name="Groupe 906" transform="translate(131.353 21.21)">
            <path id="Tracé_1264" data-name="Tracé 1264" d="M939.437-1774.946a106.233,106.233,0,0,1-.853-52.17l1.064.26a105.148,105.148,0,0,0,.847,51.623Z" transform="translate(-935.747 1827.116)" fill="#246fc9"/>
          </g>
          <g id="Groupe_907" data-name="Groupe 907" transform="translate(23.255 25.152)">
            <path id="Tracé_1265" data-name="Tracé 1265" d="M906.3-1791.069a6.843,6.843,0,0,1-1.556-.174c-5.019-1.162-8.788-6.99-12.778-13.157-5.236-8.092-11.146-17.262-20.738-16.917-6.838.25-12.08,5.433-19.337,12.608-3.693,3.65-7.878,7.786-13.035,12.023a1.094,1.094,0,0,1-1.541-.151,1.094,1.094,0,0,1,.151-1.541c5.078-4.172,9.227-8.273,12.884-11.89,7.61-7.523,13.108-12.959,20.8-13.238.211-.009.423-.012.633-.012,10.427,0,16.581,9.514,22.022,17.927,3.743,5.786,7.278,11.251,11.434,12.213,3.99.927,9.8-3.84,16.529-9.354,10.328-8.462,23.174-19,38.523-17.3a1.1,1.1,0,0,1,.967,1.209,1.078,1.078,0,0,1-1.209.968c-14.418-1.594-26.882,8.613-36.893,16.815C916.439-1795.533,910.989-1791.07,906.3-1791.069Z" transform="translate(-837.065 1823.517)" fill="#042033"/>
          </g>
          <path id="Tracé_1266" data-name="Tracé 1266" d="M944.568-1814.074l10.744-5.8-12.337-4.406Z" transform="translate(-803.705 1848.596)" fill="#042033"/>
        </g>
        <g id="Groupe_909" data-name="Groupe 909" transform="translate(657.32 202.718)">
          <path id="Tracé_1267" data-name="Tracé 1267" d="M601.158-1626.856a1.087,1.087,0,0,1-.708-.261,1.1,1.1,0,0,1-.128-1.544l14.037-16.568-1.614-24.546a1.094,1.094,0,0,1,1.021-1.164,1.114,1.114,0,0,1,1.166,1.021l1.672,25.43L602-1627.244A1.093,1.093,0,0,1,601.158-1626.856Z" transform="translate(-600.063 1670.94)" fill="#ffeae1"/>
        </g>
        <g id="Groupe_910" data-name="Groupe 910" transform="translate(476.507 155.686)">
          <path id="Tracé_1268" data-name="Tracé 1268" d="M523.044-1672.386a1.1,1.1,0,0,1-1.024-.707c-.016-.044-1.736-4.478-6.85-11.618-5.544-7.739-11.342-8.1-25.353-8.954-1.744-.106-3.608-.221-5.606-.358-15.187-1.045-36-5.013-48.892-17.985a1.094,1.094,0,0,1,0-1.549,1.093,1.093,0,0,1,1.549,0c9.687,9.744,26.552,15.9,47.49,17.343,1.991.137,3.85.251,5.59.358,14.315.877,20.849,1.277,27,9.865,5.3,7.4,7.046,11.927,7.117,12.116a1.1,1.1,0,0,1-.635,1.412A1.105,1.105,0,0,1,523.044-1672.386Z" transform="translate(-435 1713.876)" fill="#246fc9"/>
        </g>
        <path id="Tracé_1269" data-name="Tracé 1269" d="M443.75-1711.871l53.837-26.2s2.066,6.416,4.495,9.8a18.828,18.828,0,0,0,5.34,5.066l-44.5,20.813s-8.2-2.735-10.27-3.7C450.063-1707.292,443.75-1711.871,443.75-1711.871Z" transform="translate(42.342 1867.253)" fill="#246fc9"/>
        <path id="Tracé_1270" data-name="Tracé 1270" d="M471.951-1701.913c5.751-2.025,26.891-13.087,26.891-13.087s6.3.548,11.228,1.232,9.448,1.1,9.448,1.1l-24.373,12.187s-12.4-.232-14.035-.506S471.951-1701.913,471.951-1701.913Z" transform="translate(45.033 1869.454)" fill="#246fc9"/>
        <path id="Tracé_1271" data-name="Tracé 1271" d="M500.059-1698.613,535.732-1715s6.162-.137,10.817,1.643,10.68,7.668,10.68,7.668l-36.606,21s-3.788-8.331-9.813-11.137C508.669-1696.828,500.059-1698.613,500.059-1698.613Z" transform="translate(47.715 1869.454)" fill="#246fc9"/>
        <path id="Tracé_1272" data-name="Tracé 1272" d="M774.787-1549.3c1.549-10.844-7.159-49.421-8.763-54.771-3.286-10.954,10.954-15.336,19.718-9.859,3.35,2.093,8.178,16.265,23,23,12.05,5.477,81.777.375,102.969,2.191,38.34,3.286,76.679,30.672,87.633,30.672,22.342,0,31.345-5.477,37.244-5.477,8.763,0,14.24,14.24,8.763,18.622-4.606,3.685-46.008,46.008-52.58,66.821-12.517,39.639-26.948,166.291-26.948,166.291l-240.268-6.448S772.6-1533.968,774.787-1549.3Z" transform="translate(69.232 1878.873)" fill="#132d7f"/>
        <path id="Tracé_1273" data-name="Tracé 1273" d="M755.554-1444.138c4.366-38.555,27.414-86.64,42.2-101.745s18.257-9.839,45.643-6.005,42.985-2.266,63.5-7.875,30.708,7.624,49.878,13.88,42.721-4.186,52.032-8.276,6.558,12.084-5.99,18.912c-13.251,7.212-28.99,30.927-33.993,54.531s-26.819,157.432-26.819,157.432l-206.505-3.6Z" transform="translate(70.18 1884.137)" fill="#0e2868"/>
        <path id="Tracé_1274" data-name="Tracé 1274" d="M987.778-1422.752c-2.191-4.382-20.813-31.767-27.385-40.531s-14.818-35.169-17.527-46.008c-.839-3.354-4.25-6.057-9.241-6.162l-104.683-19.033c-18.622-1.1-41.626,3.286-41.626,3.286s-25.195,50.389-24.1,58.057-19.719,159.3-19.719,159.3l148.614,1.54s7.753-72.822,12.465-110.033C928.912-1421.349,989.531-1419.247,987.778-1422.752Z" transform="translate(70.944 1886.662)" fill="#dcd8cb"/>
        <path id="Tracé_1275" data-name="Tracé 1275" d="M970.875-1437.29c-27.378-6.874-55.211-37.975-59.593-34.689s-30.307,27.021-45.682,31.157-20.043,27.631-31,54.647-40.531,16.07-61.343,26.645c-19.7,10.01-8.345,15.809-28.435,30.024-.83,6.107-1.325,9.71-1.325,9.71l148.614,1.54s7.753-72.822,12.465-110.033c7.414.3,18.2.7,29.558,1.019C933.173-1431.107,972.084-1436.987,970.875-1437.29Z" transform="translate(70.944 1892.62)" fill="#c6c1b6"/>
        <path id="Tracé_1276" data-name="Tracé 1276" d="M586.333-1328.072l52.215-38.273s18.622,3.585,24.83,4.315,20.447,2.557,20.447,2.557l7.4,17.891,10.129-14.97s24.751,3.285,29.537,4.381,30.346,4.192,30.346,4.192l5.112,22.1,17.527-18.987s32.854,7.668,46.372,8.216c132.2,5.357,242.088-32.694,242.088-32.694l16.506,21.134s-146.5,59.668-251.473,52.6C726.991-1303.049,586.333-1328.072,586.333-1328.072Z" transform="translate(55.947 1902.436)" fill="#173199"/>
        <path id="Tracé_1277" data-name="Tracé 1277" d="M629.294-1314.95l32.073-36.218,49.762,8.531,8.763,25.195,14.853-20.184,61.462,11.056,5.842,27.02,45.551,1.461,11.847-19.973,46.667-.475,10.514,16.667,5.553-14.476s40.905-6.5,52.833-9.494c27.16-6.822,102.687-32.442,102.687-32.442l12.338,10.657s-110.712,70.247-187.026,76.089C756.87-1260.349,629.294-1314.95,629.294-1314.95Z" transform="translate(60.046 1903.492)" fill="#2747ad"/>
        <g id="Groupe_912" data-name="Groupe 912" transform="translate(1127.634 92.031)">
          <path id="Tracé_1278" data-name="Tracé 1278" d="M1131.022-1745.217c-13.039-27.064-41.64-33.168-68.37-20.292s-41.463,39.857-28.425,66.921c4.554,9.453,12.814,19.027,19.262,22.462,38.722,20.626,49.585,48.089,49.585,48.089l43.193-20.809s-19.2-24.973-10.324-64.251C1137.553-1720.223,1135.576-1735.765,1131.022-1745.217Z" transform="translate(-1029.41 1771.985)" fill="#7db6ef" opacity="0.34"/>
          <path id="Tracé_1279" data-name="Tracé 1279" d="M1142.4-1666.984a.582.582,0,0,0-.185-.037,1.861,1.861,0,0,1-1.719-2.608,8.475,8.475,0,0,0,.415-.964,3.732,3.732,0,0,0-3.348-4.264,3.851,3.851,0,0,0-4.3,3.334,27.385,27.385,0,0,1-14.567,17.081c-9.876,4.777-16.925,5.894-29.2,3.184a3.849,3.849,0,0,0-4.683,3.681,3.956,3.956,0,0,0,3.194,3.876q.5.108.986.21a2.558,2.558,0,0,1,2.025,2.719l-.005.061a3.827,3.827,0,0,0,3.487,4.118c.462.041.916.078,1.36.115a2.131,2.131,0,0,1,1.919,2.1v.054a3.84,3.84,0,0,0,3.426,3.823c1.06.12,2.063.21,3.034.285a5.269,5.269,0,0,0,.442,2.855c2.419,5.007,13.1,4.851,23.867-.349s17.525-13.474,15.106-18.481a4.92,4.92,0,0,0-.918-1.262,26.491,26.491,0,0,0,2.063-3.821,3.831,3.831,0,0,0-1.562-4.711,2.381,2.381,0,0,1-.251-3.549,6.33,6.33,0,0,0,1.439-2.4A3.847,3.847,0,0,0,1142.4-1666.984Zm1.058,11.157-.005,0C1143.548-1655.774,1143.583-1655.753,1143.459-1655.827Z" transform="translate(-1024.122 1781.25)" fill="#132d7f"/>
          <path id="Tracé_1280" data-name="Tracé 1280" d="M1059.83-1765.509c-.283.136-.555.283-.836.422,27.218-2.366,49.933,5.682,51.063,16.308,1.273,11.975-10.627,21.763-9.788,30.384s3.525,15.163,14.062,21.237,14.222,23.535,11.249,31.148c-2.967,7.594-2.09,23.823,1.529,25.035l16.336-7.871s-19.2-24.973-10.324-64.251c1.609-7.127-.368-22.669-4.923-32.121C1115.16-1772.282,1086.559-1778.385,1059.83-1765.509Z" transform="translate(-1026.587 1771.985)" fill="#6caadd"/>
          <g id="Groupe_911" data-name="Groupe 911" transform="translate(97.739 106.363)">
            <path id="Tracé_1281" data-name="Tracé 1281" d="M1138.374-1657.475l0,0C1138.423-1657.444,1138.419-1657.448,1138.374-1657.475Z" transform="translate(-1116.752 1676.549)" fill="#132d7f"/>
            <path id="Tracé_1282" data-name="Tracé 1282" d="M1130.021-1630.337c7.937-5.07,12.461-11.626,10.418-15.856a4.92,4.92,0,0,0-.918-1.262,26.491,26.491,0,0,0,2.063-3.821,3.817,3.817,0,0,0-1.323-4.534l-.028-.016-.005,0,.031.017c-.08-.057-.151-.123-.235-.174a2.381,2.381,0,0,1-.251-3.549,6.33,6.33,0,0,0,1.439-2.4,3.847,3.847,0,0,0-2.036-5.049.582.582,0,0,0-.185-.037,1.861,1.861,0,0,1-1.719-2.608,8.475,8.475,0,0,0,.415-.964,3.732,3.732,0,0,0-3.348-4.264,3.851,3.851,0,0,0-4.3,3.334,27.242,27.242,0,0,1-11.408,15.273c.546,3.227,1.5,5.609,2.809,6.021,3.641,1.145,8.8,1.784,9.023,6.188.1,1.911-4.057,2.911-1.221,5.341S1132.081-1633.044,1130.021-1630.337Z" transform="translate(-1118.635 1674.888)" fill="#0f296d"/>
          </g>
        </g>
        <g id="Groupe_914" data-name="Groupe 914" transform="translate(762.048 267.432)">
          <path id="Tracé_1283" data-name="Tracé 1283" d="M722.9-1609.654c-9.564-5.158-19.237-.874-24.331,8.572s-3.683,20.476,5.881,25.634c3.341,1.8,7.793,2.852,10.41,2.49,15.719-2.18,24.731,3.558,24.731,3.558l8.233-15.265s-10.925-3.238-16.664-16.626C730.119-1603.72,726.24-1607.852,722.9-1609.654Z" transform="translate(-695.669 1611.864)" fill="#7db6ef" opacity="0.83"/>
          <path id="Tracé_1284" data-name="Tracé 1284" d="M743.073-1589.554a.236.236,0,0,0-.062.027.672.672,0,0,1-1.057-.4,3.239,3.239,0,0,0-.082-.371,1.35,1.35,0,0,0-1.886-.538,1.392,1.392,0,0,0-.55,1.888,9.909,9.909,0,0,1-.641,8.1c-1.879,3.5-3.706,5.319-7.874,7.13a1.392,1.392,0,0,0-.59,2.073,1.432,1.432,0,0,0,1.758.457l.334-.148a.925.925,0,0,1,1.17.366l.011.02a1.385,1.385,0,0,0,1.9.465l.422-.255a.771.771,0,0,1,1.008.207l.012.016a1.389,1.389,0,0,0,1.815.392c.335-.191.648-.377.949-.561a1.909,1.909,0,0,0,.736.742c1.771.953,4.867-1.36,6.915-5.168s2.272-7.667.5-8.62a1.759,1.759,0,0,0-.537-.174,9.488,9.488,0,0,0-.207-1.558,1.386,1.386,0,0,0-1.457-1.048.86.86,0,0,1-.827-.986,2.288,2.288,0,0,0-.088-1.008A1.391,1.391,0,0,0,743.073-1589.554Zm2.678,3.042h0C745.788-1586.515,745.8-1586.516,745.751-1586.512Z" transform="translate(-692.385 1613.853)" fill="#132d7f"/>
          <path id="Tracé_1285" data-name="Tracé 1285" d="M698.33-1601.082c-.054.1-.1.2-.156.3,7.469-6.472,15.831-8.937,18.417-6.064,2.915,3.237,1.507,8.63,3.584,10.977s4.251,3.692,8.626,3.235,9.161,3.873,9.907,6.734,4.445,7.422,5.762,7.007l3.114-5.773s-10.925-3.238-16.664-16.626c-1.042-2.428-4.921-6.561-8.26-8.362C713.1-1614.812,703.424-1610.528,698.33-1601.082Z" transform="translate(-695.43 1611.864)" fill="#6caadd"/>
          <g id="Groupe_913" data-name="Groupe 913" transform="translate(46.879 22.839)">
            <path id="Tracé_1286" data-name="Tracé 1286" d="M744.4-1586.9h0C744.416-1586.906,744.415-1586.906,744.4-1586.9Z" transform="translate(-737.898 1591.406)" fill="#132d7f"/>
            <path id="Tracé_1287" data-name="Tracé 1287" d="M747.372-1576.878c1.248-3.17,1.181-6.051-.315-6.856a1.759,1.759,0,0,0-.537-.174,9.488,9.488,0,0,0-.207-1.558,1.381,1.381,0,0,0-1.35-1.047h0c-.035,0-.07,0-.105,0a.86.86,0,0,1-.827-.986,2.288,2.288,0,0,0-.088-1.008,1.391,1.391,0,0,0-1.668-1.046.236.236,0,0,0-.062.027.672.672,0,0,1-1.057-.4,3.239,3.239,0,0,0-.082-.371,1.35,1.35,0,0,0-1.886-.538,1.392,1.392,0,0,0-.55,1.888,9.855,9.855,0,0,1-.1,6.895c.845.829,1.629,1.324,2.1,1.167,1.31-.437,2.955-1.344,3.957-.1.435.539-.571,1.714.777,1.824A2.069,2.069,0,0,1,747.372-1576.878Z" transform="translate(-738.464 1591.014)" fill="#0f296d"/>
          </g>
        </g>
        <g id="Groupe_916" data-name="Groupe 916" transform="translate(585.938 8.893)">
          <path id="Tracé_1288" data-name="Tracé 1288" d="M582.479-1839.362c-10.125-11.649-25.128-10.8-36.633-.8s-15.155,25.367-5.03,37.016c3.537,4.068,8.927,7.7,12.588,8.526,21.984,4.981,31.085,17.122,31.085,17.122l18.592-16.16s-12.9-9.779-13.814-30.448C589.1-1827.858,586.015-1835.292,582.479-1839.362Z" transform="translate(-534.899 1847.882)" fill="#7db6ef" opacity="0.83"/>
          <path id="Tracé_1289" data-name="Tracé 1289" d="M598.949-1802.288a.281.281,0,0,0-.1.007.957.957,0,0,1-1.2-1.06,4.316,4.316,0,0,0,.076-.533,1.916,1.916,0,0,0-2.237-1.661,1.979,1.979,0,0,0-1.677,2.233,14.07,14.07,0,0,1-4.908,10.437c-4.249,3.7-7.591,5.213-14.039,5.531a1.978,1.978,0,0,0-1.824,2.458,2.034,2.034,0,0,0,2.109,1.489c.173-.009.346-.019.517-.03a1.314,1.314,0,0,1,1.371,1.073l.005.031a1.967,1.967,0,0,0,2.286,1.57l.689-.128a1.1,1.1,0,0,1,1.236.781l.008.026a1.973,1.973,0,0,0,2.215,1.432c.542-.084,1.052-.175,1.543-.269a2.711,2.711,0,0,0,.6,1.355c1.876,2.154,7.152.63,11.782-3.4s6.862-9.05,4.985-11.205a2.5,2.5,0,0,0-.625-.5,13.687,13.687,0,0,0,.505-2.173,1.97,1.97,0,0,0-1.412-2.124,1.223,1.223,0,0,1-.6-1.725,3.252,3.252,0,0,0,.389-1.382A1.977,1.977,0,0,0,598.949-1802.288Zm2.034,5.386h0C601.035-1796.888,601.056-1796.882,600.983-1796.9Z" transform="translate(-531.265 1851.92)" fill="#132d7f"/>
          <path id="Tracé_1290" data-name="Tracé 1290" d="M544.923-1840.165c-.122.106-.237.216-.357.322,13.17-4.857,25.518-3.943,27.516,1.172,2.252,5.763-2.321,12.225-.738,16.384s3.8,7.038,9.845,8.622,10.234,9.739,9.791,13.915,2.189,12.09,4.147,12.2l7.031-6.111s-12.9-9.779-13.814-30.448c-.167-3.75-3.251-11.184-6.787-15.254C571.431-1851.011,556.428-1850.165,544.923-1840.165Z" transform="translate(-533.976 1847.882)" fill="#6caadd"/>
          <g id="Groupe_915" data-name="Groupe 915" transform="translate(58.957 46.363)">
            <path id="Tracé_1291" data-name="Tracé 1291" d="M598.557-1797.653h0C598.585-1797.645,598.583-1797.645,598.557-1797.653Z" transform="translate(-587.781 1806.311)" fill="#132d7f"/>
            <path id="Tracé_1292" data-name="Tracé 1292" d="M597.87-1782.886c3.248-3.587,4.6-7.45,3.018-9.27a2.5,2.5,0,0,0-.625-.5,13.687,13.687,0,0,0,.505-2.173,1.961,1.961,0,0,0-1.27-2.068l-.016,0h0l.018,0c-.047-.018-.092-.041-.14-.055a1.223,1.223,0,0,1-.6-1.725,3.253,3.253,0,0,0,.389-1.382,1.977,1.977,0,0,0-1.692-2.227.281.281,0,0,0-.1.007.957.957,0,0,1-1.2-1.06,4.328,4.328,0,0,0,.076-.533,1.916,1.916,0,0,0-2.237-1.661,1.979,1.979,0,0,0-1.677,2.233,13.99,13.99,0,0,1-3.586,9.114c.707,1.526,1.5,2.577,2.206,2.6,1.96.074,4.6-.306,5.311,1.846.307.934-1.618,1.992.117,2.813A2.936,2.936,0,0,1,597.87-1782.886Z" transform="translate(-588.72 1805.557)" fill="#0f296d"/>
          </g>
        </g>
        <g id="Groupe_917" data-name="Groupe 917" transform="translate(1162.82 129.509)">
          <path id="Tracé_1293" data-name="Tracé 1293" d="M1120.924-1648.406a1.638,1.638,0,0,1-1.139-.459c-3.543-3.41-7.206-6.935-9.68-11.444a49.281,49.281,0,0,1-2.241-4.884,38.633,38.633,0,0,0-2.552-5.364,38.62,38.62,0,0,0-5.369-6.436,49.779,49.779,0,0,1-4.968-5.725,17.586,17.586,0,0,1-3.2-8.646,11.124,11.124,0,0,1-4.34-1.617,13.567,13.567,0,0,1-6.421-11.132,10.428,10.428,0,0,1,.431-2.911c-.458-.276-.948-.552-1.446-.834-3.037-1.711-6.817-3.842-6.442-7.862a10.251,10.251,0,0,0-.082-1.814c-4.844-.114-9.216-.354-10.521-.531a1.644,1.644,0,0,1-1.406-1.851,1.632,1.632,0,0,1,1.85-1.406c1.445.2,5.444.4,9.836.51a17.6,17.6,0,0,1,2.148-8.666,15.712,15.712,0,0,1,9.526-7.661,13.325,13.325,0,0,1,10.272.846l.249.175c1.237,1.054,2.562,3.066,1.845,6.67-.894,4.505-5.088,10.323-8.16,11.318-1.758.571-6.989.714-12.33.655a11.214,11.214,0,0,1,.045,2.06c-.163,1.763,1.88,3.058,4.784,4.7.421.236.834.47,1.229.7a9.844,9.844,0,0,1,6.115-4.312l1.361-.276.5,1.295a4.839,4.839,0,0,1-1.655,5.527,7.363,7.363,0,0,1-4.552,1.653,7.179,7.179,0,0,0-.307,2.029,10.4,10.4,0,0,0,4.924,8.362,7.746,7.746,0,0,0,2.741,1.067,9.46,9.46,0,0,1,2.606-4.933,4.1,4.1,0,0,1,4.274-1.279c1.977.742,2.523,3.045,2.032,4.835a6.265,6.265,0,0,1-3.974,4.223,8.909,8.909,0,0,1-1.823.474,14.487,14.487,0,0,0,2.581,6.74,46.607,46.607,0,0,0,4.651,5.339,41.591,41.591,0,0,1,5.806,7,41.562,41.562,0,0,1,2.781,5.816,46.2,46.2,0,0,0,2.089,4.565c2.231,4.069,5.712,7.417,9.077,10.656a1.644,1.644,0,0,1,.045,2.323A1.643,1.643,0,0,1,1120.924-1648.406Zm-23.281-49.43a3.872,3.872,0,0,0-.756.563,6.033,6.033,0,0,0-1.5,2.493c.117-.036.23-.074.342-.117a2.987,2.987,0,0,0,1.976-2.019A1.254,1.254,0,0,0,1097.643-1697.835Zm-21.126-22.916c5.193.063,10.188-.052,11.582-.5,1.476-.479,5.161-4.869,5.949-8.833.311-1.567.093-2.72-.648-3.433a10.321,10.321,0,0,0-7.578-.462,12.425,12.425,0,0,0-7.534,6.038A14.251,14.251,0,0,0,1076.516-1720.751Z" transform="translate(-1061.53 1737.772)" fill="#dd6052"/>
        </g>
        <g id="Groupe_918" data-name="Groupe 918" transform="translate(1136.099 71.826)">
          <path id="Tracé_1294" data-name="Tracé 1294" d="M1048.509-1768.552a1.092,1.092,0,0,1-.53-.137c-5.28-2.924-7.337-7.451-5.793-12.748.5-1.7-2.032-5.07-4.615-7.024a1.094,1.094,0,0,1-.211-1.533,1.093,1.093,0,0,1,1.534-.213c2.679,2.028,6.326,6.2,5.4,9.385-1.264,4.335.334,7.772,4.751,10.217a1.1,1.1,0,0,1,.428,1.489A1.1,1.1,0,0,1,1048.509-1768.552Z" transform="translate(-1037.137 1790.43)" fill="#ffeae1"/>
        </g>
        <g id="Groupe_919" data-name="Groupe 919" transform="translate(1243.827 99.552)">
          <path id="Tracé_1295" data-name="Tracé 1295" d="M1136.576-1749.519a1.082,1.082,0,0,1-.364-.062,1.1,1.1,0,0,1-.669-1.4c2-5.692,6.113-8.482,11.606-7.832,1.775.22,4.662-2.849,6.157-5.719a1.093,1.093,0,0,1,1.478-.465,1.1,1.1,0,0,1,.464,1.478c-1.552,2.978-5.065,7.269-8.355,6.882-4.5-.522-7.608,1.624-9.284,6.384A1.1,1.1,0,0,1,1136.576-1749.519Z" transform="translate(-1135.481 1765.12)" fill="#ffeae1"/>
        </g>
        <g id="Groupe_920" data-name="Groupe 920" transform="translate(1106.833 190.591)">
          <path id="Tracé_1296" data-name="Tracé 1296" d="M1011.516-1666.408a1.11,1.11,0,0,1-.364-.061,1.1,1.1,0,0,1-.669-1.4c2-5.694,6.132-8.479,11.606-7.832,1.764.2,4.661-2.849,6.157-5.72a1.092,1.092,0,0,1,1.478-.466,1.1,1.1,0,0,1,.466,1.478c-1.552,2.977-5.057,7.255-8.355,6.884-4.477-.523-7.609,1.62-9.286,6.384A1.094,1.094,0,0,1,1011.516-1666.408Z" transform="translate(-1010.421 1682.01)" fill="#ffeae1"/>
        </g>
        <g id="Groupe_921" data-name="Groupe 921" transform="translate(1093.229 135.402)">
          <path id="Tracé_1297" data-name="Tracé 1297" d="M1016.392-1724.615c-2.39,0-4.72-.531-5.857-2.08-2.668-3.643-6.368-4.465-11-2.444a1.094,1.094,0,0,1-1.442-.566,1.1,1.1,0,0,1,.567-1.443c5.531-2.413,10.378-1.294,13.642,3.156,1.049,1.434,5.258,1.471,8.38.607a1.1,1.1,0,0,1,1.349.764,1.1,1.1,0,0,1-.765,1.347A19.065,19.065,0,0,1,1016.392-1724.615Z" transform="translate(-998.001 1732.392)" fill="#ffeae1"/>
        </g>
        <g id="Groupe_922" data-name="Groupe 922" transform="translate(1246.784 153.66)">
          <path id="Tracé_1298" data-name="Tracé 1298" d="M1156.574-1707.95c-2.392,0-4.725-.531-5.861-2.079-2.672-3.642-6.374-4.463-11-2.443a1.094,1.094,0,0,1-1.443-.565,1.1,1.1,0,0,1,.565-1.444c5.533-2.412,10.378-1.294,13.642,3.155,1.05,1.431,5.26,1.469,8.383.608a1.1,1.1,0,0,1,1.346.765,1.093,1.093,0,0,1-.765,1.346A19.034,19.034,0,0,1,1156.574-1707.95Z" transform="translate(-1138.18 1715.725)" fill="#ffeae1"/>
        </g>
        <g id="Groupe_923" data-name="Groupe 923" transform="translate(1208.163 65.46)">
          <path id="Tracé_1299" data-name="Tracé 1299" d="M1104.021-1774.663l-.076,0a1.1,1.1,0,0,1-1.019-1.167c.227-3.352,1.714-8.691,4.889-9.659,4.318-1.319,6.316-4.54,5.94-9.575a1.094,1.094,0,0,1,1.01-1.173,1.106,1.106,0,0,1,1.174,1.011c.45,6.019-2.208,10.221-7.485,11.832-1.7.519-3.125,4.48-3.342,7.712A1.1,1.1,0,0,1,1104.021-1774.663Z" transform="translate(-1102.924 1796.242)" fill="#ffeae1"/>
        </g>
        <path id="Tracé_1300" data-name="Tracé 1300" d="M329.4-1534.8l12.645-102.611,78.136,62.19Z" transform="translate(31.431 1876.857)" fill="#2d96d6"/>
        <path id="Tracé_1302" data-name="Tracé 1302" d="M557.8-1574.967l21.606-10.644-2.135,23.166Z" transform="translate(53.225 1881.8)" fill="#dd6052"/>
        <path id="Tracé_1303" data-name="Tracé 1303" d="M544.566-1726.238l32.682,7.8-22.918,22.981Z" transform="translate(51.962 1868.382)" fill="#dd6052"/>
        <path id="Tracé_1304" data-name="Tracé 1304" d="M494.456-1825.838l2.98,47.844-40.911-21.686Z" transform="translate(43.561 1858.878)" fill="#dd6052"/>
        <path id="Tracé_1305" data-name="Tracé 1305" d="M216.438-1723.848l8.506-61.1,46.034,37.836Z" transform="translate(20.652 1862.78)" fill="#dd6052"/>
        <path id="Tracé_1306" data-name="Tracé 1306" d="M248-1845.439a52.425,52.425,0,0,0,22.049-12.861l157.289,1.972s-6.576.9,17.066,21.983c24.142,21.532,59.377,35.887,59.377,35.887l-103.747,79.605s-26.753-4.568-56.116-31.32-36.123-49.68-51.547-67.207C278.016-1833.694,248-1845.439,248-1845.439Z" transform="translate(23.664 1855.781)" fill="#7db6ef"/>
        <g id="Groupe_924" data-name="Groupe 924" transform="translate(409.654 54.222)">
          <path id="Tracé_1307" data-name="Tracé 1307" d="M376.707-1754.2a2.739,2.739,0,0,1-2.66-2.1,2.74,2.74,0,0,1,2.02-3.306c19.826-4.784,33.345-17.338,45.27-28.415,9.457-8.783,17.623-16.367,27.122-18.421a2.731,2.731,0,0,1,3.255,2.1,2.737,2.737,0,0,1-2.1,3.254c-8.031,1.736-15.686,8.849-24.552,17.082-11.8,10.963-26.494,24.606-47.713,29.728A2.781,2.781,0,0,1,376.707-1754.2Z" transform="translate(-373.971 1806.501)" fill="#58a9e0"/>
        </g>
        <g id="Groupe_925" data-name="Groupe 925" transform="translate(381.753 40.181)">
          <path id="Tracé_1308" data-name="Tracé 1308" d="M351.235-1776.389a2.739,2.739,0,0,1-2.71-2.366,2.737,2.737,0,0,1,2.341-3.085c11.185-1.536,30.691-10.45,43.974-22.711,14.764-13.628,26.344-14.719,26.829-14.76a2.74,2.74,0,0,1,2.953,2.506,2.738,2.738,0,0,1-2.506,2.952c-.084.009-10.32,1.1-23.56,13.326-14.075,12.992-34.923,22.463-46.945,24.112A2.9,2.9,0,0,1,351.235-1776.389Z" transform="translate(-348.499 1819.319)" fill="#58a9e0"/>
        </g>
        <path id="Tracé_1313" data-name="Tracé 1313" d="M1204.07-1420.215l29.39-14.478-2.9,31.512Z" transform="translate(114.891 1896.2)" fill="#dd6052"/>
        <g id="Groupe_930" data-name="Groupe 930" transform="translate(328.884 -3.368)">
          <path id="Tracé_1314" data-name="Tracé 1314" d="M382.264-1859.075c-3.307.12-6.624.134-9.947.082,9.789,4.888,16.116,12.532,16.116,21.122,0,14.727-18.554,26.707-41.36,26.707s-41.36-11.981-41.36-26.707c0-7.627,4.989-14.509,12.957-19.379a20.742,20.742,0,0,1-7.357-1.368c-6.9,5.606-11.077,12.846-11.077,20.747,0,17.746,21.011,32.184,46.837,32.184s46.837-14.439,46.837-32.184C393.91-1845.987,389.506-1853.407,382.264-1859.075Z" transform="translate(-300.236 1859.075)" fill="#58a9e0"/>
        </g>
        <path id="Tracé_1315" data-name="Tracé 1315" d="M860.74-1533.733l7.668-31.767H857.454L846.5-1531.542Z" transform="translate(80.772 1883.719)" fill="#e26b37"/>
        <path id="Tracé_1316" data-name="Tracé 1316" d="M854.065-1583.183c-3.43,6.858-2.191,24.1,4.382,26.29s14.927-8.609,16.023-14.086,2.6-24.254-3.973-23.158S856.256-1587.564,854.065-1583.183Z" transform="translate(81.316 1880.982)" fill="#f4793b"/>
        <path id="Tracé_1317" data-name="Tracé 1317" d="M859.107-1578.047c-13.856,0-25.195-17.04-28.481-27.995s-1.1-33.958,7.668-33.958,16.431,25.195,20.813,27.385,20.813-1.1,27.385,3.286,4.382,14.24,3.286,17.527,2.374,1.094,4.565,7.667c1.406,4.222-12.574,17.6-21.523,7.381C869.129-1580.972,860.674-1578.047,859.107-1578.047Z" transform="translate(79.119 1876.61)" fill="#042033"/>
        <path id="Tracé_1318" data-name="Tracé 1318" d="M683.5-1467.252s79.966-42.809,88.729-50.433,25.195-9.815,25.195-9.815l-21.908,60.248-61.343,61.344Z" transform="translate(65.219 1887.345)" fill="#dcd8cb"/>
        <path id="Tracé_1319" data-name="Tracé 1319" d="M698.882-1414.876c12.584-22.081,11.631-29.672,31.349-37.39s20.824-8.377,33.142-20.37,25.455-27.711,25.455-27.711l-9.793,24.434a57.389,57.389,0,0,1-14.971,21.39L712.7-1408.5Z" transform="translate(66.686 1889.936)" fill="#c6c1b6"/>
        <path id="Tracé_1320" data-name="Tracé 1320" d="M877.6-1419.463c-6.979-8.723,18.622-31.767,23-33.958s70.107,0,76.679,2.191,8.763,27.385,7.668,31.767-23,19.718-33.958,20.813S890.749-1403.032,877.6-1419.463Z" transform="translate(83.625 1894.327)" fill="#dcd8cb"/>
        <path id="Tracé_1321" data-name="Tracé 1321" d="M887.788-1422.81c2.191-8.763,17.71-15.519,25.378-18.805s55.683,7.851,57.874,14.423,3.286,21.908,0,24.1-25.195,7.668-37.244,7.668-50.389-9.859-49.294-14.24Z" transform="translate(84.396 1895.484)" fill="#e26b37"/>
        <path id="Tracé_1322" data-name="Tracé 1322" d="M824.62-1402.088c-7.535,6.358,17.527,39.435,35.053,41.626s77.775-4.382,88.729-9.859,27.4-29.212,19.723-35.966S859.673-1431.664,824.62-1402.088Z" transform="translate(78.553 1897.765)" fill="#e26b37"/>
        <path id="Tracé_1323" data-name="Tracé 1323" d="M834.682-1407.5c-7.668,3.286-62.987,17.527-66.273,17.527s-38.34,9.859-42.721,16.431-1.1,15.336,1.1,17.527,27.385,5.477,38.34,5.477,55.592-11.408,55.592-11.408Z" transform="translate(69.038 1898.795)" fill="#f4793b"/>
        <path id="Tracé_1324" data-name="Tracé 1324" d="M870.085-1404.835c-2.191,10.954-7.668,74.488-6.573,76.679s-1.1,16.431,3.286,23,19.695,11.842,27.9,7.221c7.268-4.094,14.277-15.88,16.1-27.953,1.582-10.459,13.875-91.26,12.779-94.547s-15.525-18.121-24.65-14.408-22.27,10.286-25.556,14.668S870.085-1404.835,870.085-1404.835Z" transform="translate(82.381 1896.13)" fill="#f4793b"/>
        <path id="Tracé_1325" data-name="Tracé 1325" d="M953.846-1378.34c3.731,7.462,50.492,24.268,57.145,24.647,22.456,1.278,34.87-4.929,35.966-7.12s-3.834-6.87-9.311-7.966-16.431-2.076-27.933-9.561c-4.591-2.987-45.1-38.676-49.294-36.149C944.351-1404.813,950.56-1384.913,953.846-1378.34Z" transform="translate(90.636 1898.116)" fill="#f4793b"/>
        <path id="Tracé_1326" data-name="Tracé 1326" d="M629.52-1439.676c-2.191-15.336,12.05-28.481,21.908-32.863s19.718-9.859,24.1-10.954,26.29,8.763,37.244,31.767,17.527,59.153,12.05,69.011-40.409,22.6-47.1,20.813C661.287-1366.283,637.188-1386,629.52-1439.676Z" transform="translate(60.046 1891.536)" fill="#dcd8cb"/>
        <path id="Tracé_1327" data-name="Tracé 1327" d="M639.521-1442.062c-1.783-6.42,6.573-17.527,15.336-16.431s26.29,24.1,29.576,43.817,6.573,32.863,0,36.149S645-1422.345,639.521-1442.062Z" transform="translate(60.999 1893.922)" fill="#b5afa0"/>
        <path id="Tracé_1328" data-name="Tracé 1328" d="M531.342-1391.626c3.286-8.763,130.538-57.874,130.538-57.874a51.822,51.822,0,0,1,27.568,26.29c6.189,13.194,8.4,35.926,6.207,37.022a287.285,287.285,0,0,0-40.348,27.608c-18.622,15.336-64.63,48.2-71.2,46.008S528.762-1384.745,531.342-1391.626Z" transform="translate(50.69 1894.788)" fill="#e26b37"/>
        <path id="Tracé_1329" data-name="Tracé 1329" d="M585.232-1421.317c2.862-17.39,9.26-36.7,20.4-50.355,17.288-21.205,28.221-25.9,34.323-25.9,5.477,0,1.826,18.888-1.46,30.938s-6.573,21.725-8.946,64.447c-.49,8.818,13.145,41.626,6.573,63.534S604.9-1299.77,604.9-1299.77s-46.372-18.622-59.517-21.908-107.534-23.552-107.534-23.552-40.348-63.534-50.389-78.87c-7.018-10.719-8.752-24.978-10.7-37.427-1.175-7.493,1.4-21.242,6.479-26.873h0a1.175,1.175,0,0,1,1.908.227c3.457,6.433,15.075,30.6,21.36,35.733,12.724,10.381,71.484,63.172,94.488,70.84C550.4-1365.13,577.325-1373.3,585.232-1421.317Z" transform="translate(35.922 1890.2)" fill="#f4793b"/>
        <path id="Tracé_1330" data-name="Tracé 1330" d="M488.265-1335.792c.76-7.729-.1-14.868-4.238-19.039-12.477-12.584-21.534-17.589-33.65-17.042s-26.588-22.456-27.319-34.666-14.971-18.462-25.195-24.41c-8.882-5.168-15.831-29.381-18.7-51.448-2.273,6.358-3.208,14.331-2.41,19.422,1.952,12.449,3.686,26.708,10.7,37.427,10.042,15.336,50.389,78.87,50.389,78.87S462.438-1341.4,488.265-1335.792Z" transform="translate(35.922 1891.649)" fill="#e26b37"/>
        <path id="Tracé_1331" data-name="Tracé 1331" d="M442.412-1437.84c-10.171,4.068-30.855,52.306-34.141,57.783s-10.771,23.5-10.771,23.5l39.907,3.61,49.917-73.282s-6.573-13.145-12.05-14.24S447.889-1440.031,442.412-1437.84Z" transform="translate(37.929 1895.615)" fill="#f4793b"/>
        <path id="Tracé_1332" data-name="Tracé 1332" d="M839.21-1543.347l-17.71,9.691,5.477,19.718,21.908-12.05,13.145,17.527,19.615-12.524-14.281-19.16s-9.9,5.211-14.28,4.115S839.21-1543.347,839.21-1543.347Z" transform="translate(78.386 1885.833)" fill="#c6c1b6"/>
        <path id="Tracé_1333" data-name="Tracé 1333" d="M347.24-1732.769s-147.461-7.025-196.389-11.19c-45.143-3.842-111-17.413-150.483-34.913L-.5-1455.316c74.488-3.286,97.549,43.406,122.687,47.1,37.244,5.477,43.663-9.866,71.2-13.145,40.311-4.8,127.808,70.461,212.883,91.969-7.146-21.226-31.537-131.63-39.259-174.125C357.154-1557.773,347.24-1732.769,347.24-1732.769Z" transform="translate(-0.048 1863.359)" fill="#042033"/>
        <path id="Tracé_1334" data-name="Tracé 1334" d="M122.187-1418.424c37.244,5.477,43.663-9.866,71.2-13.145,40.311-4.8,127.808,70.46,212.883,91.969-3.166-9.4-9.715-36.305-16.7-67.051-22.873-11.672-57.348-28.55-76.782-46.279-31.219-28.481-34.506-71.2-69.559-96.266S129.307-1570.14,93.158-1577.26c-27.484-5.414-65.1-44.074-93.105-94.6L-.5-1465.527C73.988-1468.814,97.049-1422.121,122.187-1418.424Z" transform="translate(-0.048 1873.571)" fill="#21232b"/>
        <path id="Tracé_1335" data-name="Tracé 1335" d="M869.572-1322.784c-.458,2.665,2.174,7.187,4.856,7.543,9.515,1.261,18.494,0,21.173-2.865,1.65-1.765.473-25.5-6.7-27.862s-13.952-.176-15.858,6.4C871.82-1335.356,870.419-1327.721,869.572-1322.784Z" transform="translate(82.968 1904.578)" fill="#dcd8cb"/>
        <path id="Tracé_1336" data-name="Tracé 1336" d="M1013.537-1371.594c-2.7,5.192,8.216,6.979,15.49,6.431,3.9-.293,6.783-.912,9.372-2.782.98-.707,1.309-1.932.226-2.465a30.508,30.508,0,0,0-7.014-2.171C1019.234-1375.155,1015.926-1376.186,1013.537-1371.594Z" transform="translate(96.67 1901.918)" fill="#dcd8cb"/>
        <path id="Tracé_1337" data-name="Tracé 1337" d="M834.555-1520.3l5.525,10.33h8.474l8.357-5.165L847.64-1527.5Z" transform="translate(79.632 1887.345)" fill="#173199"/>
        <path id="Tracé_1338" data-name="Tracé 1338" d="M842.471-1511.5c-10.225,11.465-28.654,29.309-31.21,37.45s-1.578,74.83-1.578,74.83,41.19-47.3,42.19-63.185c.577-9.168-.929-49.1-.929-49.1Z" transform="translate(77.241 1888.872)" fill="#3258b7"/>
        <g id="Groupe_934" data-name="Groupe 934" transform="translate(17.208 -75.584)">
          <g id="Groupe_932" data-name="Groupe 932">
            <path id="Tracé_1339" data-name="Tracé 1339" d="M49.351-1735.546c20.574,38.62,62.563,45.815,100.7,25.495s57.994-60.459,37.419-99.079c-7.187-13.489-19.774-26.936-29.362-31.554-57.576-27.733-75.009-67.061-75.009-67.061L21.467-1874.91s29.416,35.213,18.823,92.9C38.367-1771.538,42.164-1749.035,49.351-1735.546Z" transform="translate(-15.16 1926.646)" fill="#7db6ef" opacity="0.67"/>
            <path id="Tracé_1340" data-name="Tracé 1340" d="M20.475-1860.265a.81.81,0,0,0,.272.045,2.709,2.709,0,0,1,2.655,3.693,12.146,12.146,0,0,0-.548,1.427c-.5,3.044,2.05,5.754,5.124,6.01a5.612,5.612,0,0,0,6.055-5.107c.061-.7,3.469-16.781,20.191-25.722,14.094-7.535,24.287-9.578,42.3-6.359a5.607,5.607,0,0,0,6.6-5.634,5.766,5.766,0,0,0-4.879-5.452q-.728-.128-1.448-.247a3.725,3.725,0,0,1-3.107-3.837l0-.09a5.572,5.572,0,0,0-5.317-5.787q-1.014-.046-1.987-.086a3.1,3.1,0,0,1-2.917-2.941l0-.079a5.592,5.592,0,0,0-5.213-5.361c-1.55-.112-3.015-.185-4.433-.237a7.674,7.674,0,0,0-.811-4.128c-3.816-7.144-19.36-6.287-34.716,1.917s-24.71,20.646-20.894,27.791a7.126,7.126,0,0,0,1.41,1.781,38.822,38.822,0,0,0-2.777,5.684,5.581,5.581,0,0,0,2.552,6.764,3.468,3.468,0,0,1,.575,5.152,9.2,9.2,0,0,0-1.953,3.574A5.6,5.6,0,0,0,20.475-1860.265Zm-2.2-16.175.009.007C18.141-1876.511,18.089-1876.54,18.276-1876.44Z" transform="translate(-15.709 1925)" fill="#132d7f"/>
            <path id="Tracé_1341" data-name="Tracé 1341" d="M150.055-1711.83c.4-.215.793-.445,1.192-.664-39.473,5.052-73.01-5.319-75.282-20.72-2.559-17.355,14.181-32.3,12.451-44.8s-6.027-21.86-21.72-30.078-22.089-33.413-18.212-44.669c3.869-11.229,1.635-34.8-3.7-36.346l-23.312,12.419s29.416,35.213,18.823,92.9c-1.922,10.467,1.874,32.97,9.061,46.459C69.925-1698.7,111.914-1691.51,150.055-1711.83Z" transform="translate(-15.16 1928.425)" fill="#6caadd"/>
            <g id="Groupe_931" data-name="Groupe 931" transform="translate(0.002 10.859)">
              <path id="Tracé_1342" data-name="Tracé 1342" d="M18.023-1880.683l-.005,0C17.949-1880.725,17.955-1880.722,18.023-1880.683Z" transform="translate(-15.496 1918.367)" fill="#132d7f"/>
              <path id="Tracé_1343" data-name="Tracé 1343" d="M31.633-1915.087c-11.254,7.848-17.452,17.657-14.227,23.693a7.126,7.126,0,0,0,1.41,1.781,38.822,38.822,0,0,0-2.777,5.684,5.561,5.561,0,0,0,2.194,6.521l.043.022.009.007-.046-.024c.119.078.227.169.353.239a3.468,3.468,0,0,1,.575,5.152,9.2,9.2,0,0,0-1.953,3.574,5.6,5.6,0,0,0,3.262,7.227.81.81,0,0,0,.272.045,2.709,2.709,0,0,1,2.655,3.693,12.145,12.145,0,0,0-.548,1.427c-.5,3.044,2.05,5.754,5.124,6.01a5.612,5.612,0,0,0,6.055-5.107c.056-.632,2.871-13.773,15.7-22.9-.985-4.666-2.51-8.073-4.443-8.6-5.366-1.451-12.906-2.079-13.5-8.474-.256-2.775,5.733-4.476,1.461-7.845S28.792-1911.026,31.633-1915.087Z" transform="translate(-15.711 1915.087)" fill="#0f296d"/>
            </g>
          </g>
          <g id="Groupe_933" data-name="Groupe 933" transform="translate(40.279 41.711)">
            <path id="Tracé_1344" data-name="Tracé 1344" d="M115.29-1755.559h-.24c-8.418-.129-16.268-7.1-17.5-15.549-.08-.544-.133-1.091-.159-1.635-6.727-3.114-11.7-10.124-12.7-18.226a31.628,31.628,0,0,1,4.587-19.857c-.709-.619-1.4-1.277-2.065-1.947-4.115-4.109-8.723-8.994-11.3-14.981-2.9-6.749-2.558-14.113.9-19.22.563-.833,1.2-1.6,1.809-2.347,1.279-1.555,2.488-3.022,2.693-4.643.507-4-5.159-6.626-9.345-7.214-.508-.071-1.028-.14-1.551-.209-5.269-.694-11.24-1.48-14.206-6.418-1.639-2.731-1.715-5.81-1.788-8.787-.069-2.781-.134-5.409-1.543-7.23a1.922,1.922,0,0,1,.342-2.7,1.923,1.923,0,0,1,2.7.342c2.182,2.818,2.266,6.209,2.346,9.489.065,2.594.125,5.044,1.242,6.9,2.011,3.35,6.791,3.98,11.413,4.588.535.071,1.066.14,1.586.214,6.873.968,13.416,5.23,12.621,11.5-.345,2.721-2.041,4.782-3.538,6.6-.583.708-1.132,1.376-1.594,2.058-3.265,4.821-2.427,11.193-.554,15.548,2.307,5.36,6.444,9.746,10.483,13.78.477.475.971.957,1.479,1.423q.148-.2.3-.406c1.625-2.18,4.462-4.626,7.553-4.949a5.537,5.537,0,0,1,4.359,1.358,5.339,5.339,0,0,1,1.361,6.005,7.813,7.813,0,0,1-6.688,5.177,10.578,10.578,0,0,1-5.9-1.638,28.111,28.111,0,0,0-3.887,17.082,19.873,19.873,0,0,0,9.176,14.5,19.577,19.577,0,0,1,11.718-14.451,11.637,11.637,0,0,1,8.879.019,6.4,6.4,0,0,1,3.489,3.918,8.336,8.336,0,0,1-.24,5.133c-2.524,7.8-11.672,12.626-20.135,10.9,1.084,6.548,7.185,11.915,13.718,12.016,6.611.088,12.972-5.484,13.623-11.953a1.912,1.912,0,0,1,2.1-1.719,1.923,1.923,0,0,1,1.72,2.1C131.711-1762.565,123.833-1755.559,115.29-1755.559Zm-13.955-19.819c6.736,1.818,14.548-1.982,16.535-8.124a4.786,4.786,0,0,0,.227-2.807,2.589,2.589,0,0,0-1.473-1.592,7.87,7.87,0,0,0-5.8.079A15.876,15.876,0,0,0,101.336-1775.379Zm-6.866-36.372a6.847,6.847,0,0,0,3.672,1.025,4.033,4.033,0,0,0,3.214-2.625,1.558,1.558,0,0,0-.279-1.833,1.728,1.728,0,0,0-1.419-.422c-1.482.157-3.487,1.563-4.874,3.424C94.678-1812.037,94.573-1811.895,94.47-1811.751Z" transform="translate(-52.479 1886.922)" fill="#dd6052"/>
          </g>
        </g>
        <path id="Tracé_1345" data-name="Tracé 1345" d="M850.928-1511.5h-.893c-3.155,27.93,4.075,32.461-7.58,44.182-13.253,13.328-19.278,15.61-19.826,31.722s-12.962,36.377-12.962,36.377,41.19-47.3,42.19-63.185C852.434-1471.572,850.928-1511.5,850.928-1511.5Z" transform="translate(77.257 1888.872)" fill="#2747ad"/>
        <g id="Groupe_935" data-name="Groupe 935" transform="translate(960.672 543.669)">
          <path id="Tracé_1346" data-name="Tracé 1346" d="M897.283-1354.833a.536.536,0,0,1-.224-.048c-.062-.027-6.392-2.805-19.558-3.712a.551.551,0,0,1-.509-.585.559.559,0,0,1,.584-.509c13.39.923,19.67,3.691,19.932,3.808a.548.548,0,0,1,.275.724A.549.549,0,0,1,897.283-1354.833Z" transform="translate(-876.991 1359.689)" fill="#062b3f"/>
        </g>
        <g id="Groupe_936" data-name="Groupe 936" transform="translate(960.672 535.861)">
          <path id="Tracé_1347" data-name="Tracé 1347" d="M897.284-1363.07a.546.546,0,0,1-.165-.026c-.111-.034-11.209-3.487-19.509-2.416a.547.547,0,0,1-.613-.474.548.548,0,0,1,.474-.612c8.538-1.1,19.515,2.313,19.978,2.459a.547.547,0,0,1,.357.687A.546.546,0,0,1,897.284-1363.07Z" transform="translate(-876.991 1366.817)" fill="#062b3f"/>
        </g>
        <path id="Tracé_1348" data-name="Tracé 1348" d="M478.38-1428.811c-2.556-1.664-16.431.934-23.369,8.762s0,15.176-7,22.06-16.735,10.278-22.212,21.049c-3.743,7.362-4.59,14.3-9.178,21.178l18.962,1.715,46.875-68.816C480.522-1426.1,479-1428.4,478.38-1428.811Z" transform="translate(39.753 1896.716)" fill="#e26b37"/>
        <path id="Tracé_1349" data-name="Tracé 1349" d="M515.183-1443.176c-7.668-2.191-18.054-7.141-25.195,0-2.521,2.521-6.966,5.691-8.9,10l-.013.011c-14.788,13.363-36.056,64.64-42.751,72.333C432.193-1353.8,415.5-1341.3,415.5-1341.3a7.852,7.852,0,0,0,7.669,7.886c13.1.2,34.935-6.49,39.982-9.529,16.979-10.224,25.195-26.675,29.576-36.533a33.554,33.554,0,0,1,4.693-7.146c11.473,25.172,24.958,52.579,27.982,55,5.477,4.382,41.266-17.344,40.17-26.107S522.851-1440.985,515.183-1443.176Z" transform="translate(39.646 1895.036)" fill="#f4793b"/>
        <path id="Tracé_1350" data-name="Tracé 1350" d="M542.536-1352.365c-6.833-4.87-15.7-13.566-21.544-19.043s-12.414-22.273-12.05-30.463-10.224-20.656-16.431-18.1-3.286,21.178-8.021,36.2l-5.508,16.336a109.583,109.583,0,0,0,7.687-14.582,33.557,33.557,0,0,1,4.693-7.146c11.473,25.172,24.958,52.579,27.982,55,0,0,48.751,21.179,56.784,1.461C572.224-1333.791,544.159-1351.208,542.536-1352.365Z" transform="translate(45.704 1897.573)" fill="#e26b37"/>
        <path id="Tracé_1351" data-name="Tracé 1351" d="M422.358-1345.119c10.327-.231,26.564-12.07,25.742-14.972s-10.5-7.471-12.857-5.273-21.649,14.969-19.732,16.338S419.072-1345.046,422.358-1345.119Z" transform="translate(39.635 1902.761)" fill="#dcd8cb"/>
        <path id="Tracé_1352" data-name="Tracé 1352" d="M481.116-1346.224l15.574-20.382s18.622,7.109,27.751,9.117,20.927,7.649,20.927,7.649l3.436,19.966s-29.545-8-36.74-9.585S481.116-1346.224,481.116-1346.224Z" transform="translate(45.907 1902.697)" fill="#3258b7"/>
        <path id="Tracé_1353" data-name="Tracé 1353" d="M545.589-1330.427l14.3-19.413s35.076,9.683,39.458,11.327l4.382,1.643,5.294,10.151,16.248-11.713,43.4,10.125,6.472,21.975,15.191-16.289,52.452,10.5,10.828,24.184,16.431-20.341,51.715,4.867,13.827,22.776,14.143-23.054,52.313,1.512,14.765,27.75s.5,4.238-61.23,10.707C734.777-1251.063,545.589-1330.427,545.589-1330.427Z" transform="translate(52.059 1904.297)" fill="#3258b7"/>
        <path id="Tracé_1354" data-name="Tracé 1354" d="M786.469-1368.521c-13.882-3.3-16.788-1.449-25.187,5.739-6.57,5.623-25.925.382-37.675-3.273.376,3.807,1.943,7.092,3.169,8.318,2.191,2.191,27.385,5.477,38.34,5.477s55.592-11.408,55.592-11.408l7.9-25.779C816.164-1380.1,795.773-1366.311,786.469-1368.521Z" transform="translate(69.046 1900.518)" fill="#e26b37"/>
        <path id="Tracé_1355" data-name="Tracé 1355" d="M850.777-1427.915c-10.466,2.618-18.731,10.363-22.017,16.935s-16.248,39.137-18.439,43.519-20.813,34.439-23,37.725-17.366,23.369-3.125,27.75c12.8,3.939,34.495-5.29,43.111-18.257,9.739-14.66,32.129-53.493,35.415-60.065s18.44-31.379,14.24-38.34C874.919-1422.029,861.548-1430.611,850.777-1427.915Z" transform="translate(74.251 1896.798)" fill="#f4793b"/>
        <path id="Tracé_1356" data-name="Tracé 1356" d="M796.466-1346.183c6.376-2.4,18.858,1.184,17.4,7.575s-13.3,18.987-16.363,19.718-13.085,3.653-16.316-1.218C779.2-1323.095,793.309-1344.994,796.466-1346.183Z" transform="translate(74.521 1904.574)" fill="#dcd8cb"/>
        <g id="Groupe_937" data-name="Groupe 937" transform="translate(878.252 547.57)">
          <path id="Tracé_1357" data-name="Tracé 1357" d="M817.032-1350.237a.551.551,0,0,1-.412-.186c-.048-.055-4.99-5.526-14.261-4.473a.558.558,0,0,1-.606-.483.549.549,0,0,1,.483-.606c9.872-1.106,15,4.6,15.208,4.84a.546.546,0,0,1-.05.771A.544.544,0,0,1,817.032-1350.237Z" transform="translate(-801.75 1356.127)" fill="#062b3f"/>
        </g>
        <g id="Groupe_938" data-name="Groupe 938" transform="translate(883.455 540.863)">
          <path id="Tracé_1358" data-name="Tracé 1358" d="M818.549-1357.971a.54.54,0,0,1-.314-.1c-.04-.027-4.085-2.82-11.207-3.083a.548.548,0,0,1-.527-.569.529.529,0,0,1,.568-.527c7.471.277,11.625,3.162,11.8,3.284a.547.547,0,0,1,.13.762A.547.547,0,0,1,818.549-1357.971Z" transform="translate(-806.5 1362.25)" fill="#062b3f"/>
        </g>
        <path id="Tracé_1359" data-name="Tracé 1359" d="M1019.15-1357.877c-7.906-.457-18.019-7.211-23.5-14.268s-8.763-9.375-19.342-10.105c-9.415-.651-17.411-5.937-25.75-20.093-2.114,8.953,1.179,18.623,3.283,22.832,3.731,7.462,50.492,24.268,57.145,24.647,16.988.967,28.225-2.35,33.166-4.971C1038.286-1359.081,1025.185-1357.528,1019.15-1357.877Z" transform="translate(90.636 1899.287)" fill="#e26b37"/>
        <path id="Tracé_1360" data-name="Tracé 1360" d="M912.5-1410.968c0-4.516,23-18.622,26.29-17.527s15.261,13.675,17.49,16.149,2.328,36.4,5.514,46.29c8.646,26.838,16.086,34.031,20.846,47.528,1.457,4.132,1.032,16.259-5.327,19.941-10.765,6.232-20.336-1.561-25.561-7.769-7.676-9.122-23.916-53.128-26.107-60.8S912.5-1406.586,912.5-1410.968Z" transform="translate(87.069 1896.786)" fill="#f4793b"/>
        <path id="Tracé_1361" data-name="Tracé 1361" d="M958.034-1314.528c10.109,2.116,18.652-7.047,18.287-9.173s-9.428-21.372-20.448-19.005c-6.907,1.483-6.837,9.16-5.469,13.818C952.237-1322.64,958.034-1314.528,958.034-1314.528Z" transform="translate(90.617 1904.959)" fill="#dcd8cb"/>
        <g id="Groupe_939" data-name="Groupe 939" transform="translate(1035.237 555.651)">
          <path id="Tracé_1362" data-name="Tracé 1362" d="M945.609-1343a.549.549,0,0,1-.452-.237.551.551,0,0,1,.14-.762c6.075-4.187,8.931-4.473,11.693-4.749a.551.551,0,0,1,.6.49.547.547,0,0,1-.49.6c-2.745.275-5.337.534-11.179,4.563A.545.545,0,0,1,945.609-1343Z" transform="translate(-945.06 1348.75)" fill="#062b3f"/>
        </g>
        <g id="Groupe_940" data-name="Groupe 940" transform="translate(1034.439 547.71)">
          <path id="Tracé_1363" data-name="Tracé 1363" d="M944.88-1348.7a.544.544,0,0,1-.388-.161.547.547,0,0,1,0-.774c2.437-2.427,13.409-6.173,13.875-6.332a.551.551,0,0,1,.694.343.548.548,0,0,1-.342.7c-.113.037-11.2,3.819-13.454,6.07A.551.551,0,0,1,944.88-1348.7Z" transform="translate(-944.332 1356)" fill="#062b3f"/>
        </g>
        <g id="Groupe_941" data-name="Groupe 941" transform="translate(347.192 130.59)">
          <path id="Tracé_1364" data-name="Tracé 1364" d="M336.722-1507.53c7.362,40.518,30.985,146.3,39.259,174.125,9.837,3.722,22.063,2.844,31.911,5.334-7.147-21.226-34.989-131.061-42.71-173.556-9.859-54.259-19.122-218.159-19.122-218.159s-15.468-7.923-29.111-17C318.577-1709.026,327.8-1556.615,336.722-1507.53Z" transform="translate(-316.949 1736.785)" fill="#0b354c"/>
        </g>
        <g id="Groupe_942" data-name="Groupe 942" transform="translate(482.806 528.266)">
          <path id="Tracé_1365" data-name="Tracé 1365" d="M455.675-1368.653a.547.547,0,0,1-.43-.208c-.029-.035-3.194-3.793-13.947-3.793a.548.548,0,0,1-.548-.548.548.548,0,0,1,.548-.548c11.364,0,14.673,4.039,14.808,4.211a.548.548,0,0,1-.092.769A.545.545,0,0,1,455.675-1368.653Z" transform="translate(-440.75 1373.75)" fill="#062b3f"/>
        </g>
        <g id="Groupe_943" data-name="Groupe 943" transform="translate(898.771 227.705)">
          <path id="Tracé_1366" data-name="Tracé 1366" d="M823.037-1613.111a1.1,1.1,0,0,1-1.068-.859c-2.5-11.319-3.436-21.682,10.467-33.889a1.1,1.1,0,0,1,1.547.1,1.1,1.1,0,0,1-.1,1.547c-13.027,11.436-12.2,20.763-9.773,31.768a1.1,1.1,0,0,1-.834,1.306A1.1,1.1,0,0,1,823.037-1613.111Z" transform="translate(-820.482 1648.13)" fill="#042033"/>
        </g>
        <path id="Tracé_1367" data-name="Tracé 1367" d="M155.47-1575.012c2.788-24.748-16.046-47.459-42.464-50.945-23.806-3.142-45.711,10.395-52.54,31.119,9.512,7,18.648,11.621,26.874,13.241C103.874-1578.34,129.344-1577.434,155.47-1575.012Z" transform="translate(5.77 1877.907)" fill="#0b354c"/>
        <path id="Tracé_1368" data-name="Tracé 1368" d="M101.219-1537.93c26.713,3.525,51.048-13.939,54.356-39.007.036-.275.056-.55.087-.825-26.127-2.422-51.6-3.328-68.13-6.584-8.226-1.62-17.362-6.238-26.874-13.241a43.319,43.319,0,0,0-1.816,7.887C55.535-1564.633,74.507-1541.455,101.219-1537.93Z" transform="translate(5.579 1880.657)" fill="#042033"/>
      </g>
    </g>
  </g>
</svg>
