<svg xmlns="http://www.w3.org/2000/svg" width="251" height="35"><path fill="#ffeae1" d="M16.016 15.241h9.992v-4.877h-9.992V5.486H26.82V.61H10.732v23.98h5.284zm19.323-5.724a7.063 7.063 0 0 1 1.507-2.456A6.881 6.881 0 0 1 39.2 5.453c.915-.384 1.936-.576 3.066-.576 1.128 0 2.15.192 3.065.576.914.384 1.699.92 2.354 1.608a7.077 7.077 0 0 1 1.507 2.456c.35.949.525 1.976.525 3.082 0 1.13-.175 2.163-.525 3.1a7.102 7.102 0 0 1-1.507 2.438 6.882 6.882 0 0 1-2.354 1.61c-.915.383-1.937.575-3.065.575-1.13 0-2.151-.192-3.066-.576a6.876 6.876 0 0 1-2.354-1.609 7.088 7.088 0 0 1-1.507-2.438c-.35-.937-.525-1.97-.525-3.1 0-1.106.175-2.133.525-3.082zm-2.354 12.278c1.151 1.096 2.517 1.937 4.098 2.524 1.58.587 3.308.88 5.183.88 1.873 0 3.601-.293 5.182-.88 1.58-.587 2.947-1.428 4.098-2.524 1.152-1.095 2.05-2.422 2.693-3.98.643-1.558.965-3.296.965-5.216 0-1.919-.322-3.658-.965-5.216-.644-1.558-1.541-2.884-2.693-3.98-1.151-1.095-2.518-1.935-4.098-2.523C45.868.293 44.139 0 42.266 0c-1.875 0-3.603.293-5.183.88-1.58.588-2.947 1.428-4.098 2.523-1.152 1.096-2.05 2.422-2.693 3.98-.643 1.558-.965 3.297-.965 5.216 0 1.92.322 3.658.965 5.217.644 1.557 1.541 2.884 2.693 3.98zm28.366.593c.847.88 1.902 1.57 3.167 2.066 1.264.497 2.732.745 4.404.745 1.647 0 3.104-.248 4.369-.745 1.264-.496 2.32-1.185 3.167-2.066a8.646 8.646 0 0 0 1.913-3.116c.43-1.197.644-2.506.644-3.929V.609H73.73v14.53a5.82 5.82 0 0 1-.356 2.067 4.937 4.937 0 0 1-.999 1.643 4.568 4.568 0 0 1-1.524 1.083 4.72 4.72 0 0 1-1.93.39c-.7 0-1.35-.13-1.948-.39a4.526 4.526 0 0 1-1.541-1.083 4.93 4.93 0 0 1-1-1.643 5.837 5.837 0 0 1-.355-2.066V.609h-5.284v14.734c0 1.423.214 2.732.643 3.93a8.639 8.639 0 0 0 1.914 3.115zM89.176 7.519h.068l10.466 17.07h6.91V.61h-5.284v16.665h-.068L91.073.609h-7.18v23.98h5.283zm27.604 12.193V5.486h3.117c1.106 0 2.162.142 3.167.424 1.004.282 1.88.706 2.625 1.27a6.13 6.13 0 0 1 1.778 2.15c.44.87.66 1.892.66 3.066 0 1.355-.22 2.501-.66 3.438-.44.937-1.045 1.694-1.812 2.27-.768.575-1.677.988-2.727 1.236-1.05.249-2.185.372-3.404.372zm8.468 4.099c1.626-.52 3.06-1.282 4.302-2.287a11.028 11.028 0 0 0 2.963-3.725c.734-1.48 1.102-3.19 1.102-5.132 0-2.19-.379-4.053-1.135-5.589-.757-1.535-1.779-2.782-3.066-3.742s-2.794-1.654-4.521-2.084a22.653 22.653 0 0 0-5.47-.643h-7.926v23.98h8.637c1.783 0 3.489-.259 5.114-.778zm21.881-16.224l2.946 7.451h-5.86zm-4.573 11.922h9.314l2.067 5.08h5.961L149.466.61h-4.37l-10.364 23.98h5.826zm21.271 5.081h5.284V5.283h6.842V.61h-18.968v4.674h6.842zm14.733 0V.609h5.284v23.98zm14.819-15.073a7.06 7.06 0 0 1 1.507-2.456 6.877 6.877 0 0 1 2.354-1.608c.915-.384 1.936-.576 3.066-.576 1.128 0 2.15.192 3.065.576.914.384 1.699.92 2.354 1.608a7.079 7.079 0 0 1 1.507 2.456c.35.949.525 1.976.525 3.082 0 1.13-.175 2.163-.525 3.1a7.104 7.104 0 0 1-1.507 2.438 6.878 6.878 0 0 1-2.354 1.61c-.915.383-1.937.575-3.065.575-1.13 0-2.151-.192-3.066-.576a6.871 6.871 0 0 1-2.354-1.609 7.085 7.085 0 0 1-1.507-2.438c-.35-.937-.525-1.97-.525-3.1 0-1.106.174-2.133.525-3.082zm-2.354 12.278c1.152 1.096 2.517 1.937 4.098 2.524 1.58.587 3.308.88 5.183.88 1.874 0 3.6-.293 5.182-.88 1.58-.587 2.946-1.428 4.098-2.524 1.152-1.095 2.05-2.422 2.693-3.98.643-1.558.965-3.296.965-5.216 0-1.919-.322-3.658-.965-5.216-.644-1.558-1.541-2.884-2.693-3.98-1.152-1.095-2.518-1.935-4.098-2.523-1.581-.587-3.308-.88-5.182-.88-1.875 0-3.603.293-5.183.88-1.58.588-2.946 1.428-4.098 2.523-1.152 1.096-2.05 2.422-2.693 3.98-.643 1.558-.965 3.297-.965 5.216 0 1.92.322 3.658.965 5.217.643 1.557 1.541 2.884 2.693 3.98zm31.093-14.276h.067l10.466 17.07h6.91V.61h-5.284v16.665h-.068L224.015.609h-7.181v23.98h5.284z"/><path fill="#ffeae1" d="M244.32.632v27.894H5.973V.632H0V34.5h250.293V.632z"/></svg>