<svg xmlns="http://www.w3.org/2000/svg" width="97" height="52" viewBox="0 0 97 52"><path fill="#dd6052" d="M21.643 45.013c-6.383-.383-11.587-2.653-15.612-6.801C2.01 34.059 0 28.92 0 22.79c0-6.447 2.152-11.86 6.462-16.23C10.773 2.187 16.122 0 22.507 0c6.192 0 11.395 2.202 15.606 6.61 4.218 4.403 6.321 9.86 6.321 16.372 0 6.767-2.06 12.768-6.173 18.005-4.12 5.237-9.66 8.91-16.618 11.013zm52.29 6.894v-6.894c-6.385-.383-11.587-2.653-15.613-6.801-4.02-4.153-6.03-9.292-6.03-15.421 0-6.448 2.152-11.861 6.462-16.23C63.062 2.187 68.41 0 74.795 0c6.194 0 11.395 2.202 15.608 6.61 4.216 4.403 6.32 9.86 6.32 16.372 0 6.767-2.06 12.768-6.172 18.005-4.12 5.237-9.66 8.875-16.619 10.92z"/></svg>