<svg xmlns="http://www.w3.org/2000/svg" width="442" height="395" viewBox="0 0 442 395"><g><g><g><path fill="#efcab9" d="M288.593 38.292C288.593 17.176 305.71.06 326.826.06c21.116 0 38.234 17.117 38.234 38.233 0 21.116-17.118 38.234-38.234 38.234-21.115 0-38.233-17.118-38.233-38.234z"/></g><g><path fill="#7db6ef" d="M297.269 394.695l-8.795-94.903 86.586 39.835z"/></g><g><g><g><path fill="#f4793b" d="M417.44 236.99c-27.278 9.395-45.258 2.591-62.77-4.033-11.064-4.186-22.503-8.515-36.252-8.639-38.901-.345-59.727 16.014-79.865 31.836-17.758 13.951-34.531 27.124-61.886 27.412-12.502.13-16.858-5.418-18.311-10.096-5.23-16.839 17.827-47.664 35.332-59.433l2.123 3.158c-18.011 12.115-38.026 41.596-33.817 55.148 1.555 5.003 6.478 7.497 14.634 7.411 26.054-.268 42.337-13.055 59.572-26.596 20.656-16.224 42.013-33.006 82.253-32.646 14.426.128 26.188 4.577 37.565 8.883 22.326 8.445 43.414 16.416 83.475-6.973l1.921 3.288c-8.763 5.118-16.7 8.776-23.974 11.28z"/></g></g><g><path fill="#042033" d="M135.215 214.8c3.895-.485 95.03 20.312 95.03 20.312l104.864-94.43-2.124-6.169-91.353-.151-108.798 73.524z"/></g><g><path fill="#132d7f" d="M132.834 207.885c3.896-.485 94.361 18.368 94.361 18.368l105.79-91.74-91.471-5.589z"/></g><g><path fill="#0e2656" d="M203.784 122.506l115.4-84.35 13.802 96.357-105.79 91.74z"/></g><g><path fill="#132d7f" d="M271.52 146.362c-5.845-1.136-9.287-8.719-7.69-16.937 1.598-8.218 7.63-13.96 13.474-12.823 5.845 1.136 9.287 8.719 7.69 16.937-1.598 8.218-7.63 13.96-13.474 12.823z"/></g></g><g><path fill="#ffeae1" d="M0 250.04l52.393-27.874-2.057 59.31z"/></g></g></g></svg>