<?xml version="1.0" encoding="UTF-8"?> <svg xmlns="http://www.w3.org/2000/svg" width="721" height="331" viewBox="0 0 721 331"><g><g><g><path fill="#7db3ec" d="M4.163 20.315h696.014V266.31s-119.439 62.25-254.566 48.596C257.138 295.862 144.842 65.36 33.061 50.696c-11.964-1.57-21.743-10.36-25.804-21.723z"></path></g></g><g><g><path fill="#132d7f" d="M0 20.224h82.722c21.59 1.374 43.122 17.108 51.453 18.127 8.332 1.02 31.75-.787 38.651 3.536 6.902 4.324.355 12.133 8.687 16.225 8.332 4.093 9.522-1.46 20.83 9.647 11.307 11.11 20.564 23.286 20.564 23.286L164.615 97.5 74.39 48.465z"></path></g></g><g><g><path fill="#132d7f" d="M315.368 85.02c6.085-11.706-2.971-22.606 3.469-32.844 7.049-11.205 24.572-6.406 33.455-11.205 13.981-7.552 16.443-20.747 16.443-20.747h273.844s-28.242 40.145 7.388 43.786c28.197 2.881 44.274 43.201 50.058 61.1 0 0-.349 8.257.025 8.283 30.558 2.14-336.349-23.09-342.295-3.439-6.258 20.686-14.163 49.676-14.163 49.676l-79.191-43.386c17.563-33.047 41.824-33.635 50.967-51.225z"></path></g></g><g><g><path fill="#21232b" d="M269.616 42.8c.493-6.034 8.519-5.618 10.343-7.635 3.118-3.448 5.295-7.265 10.22-5.91 4.925 1.354 2.76 4.68 2.39 8.373-.37 3.693 1.058 3.693 2.166 6.772 1.108 3.078-.493 7.82-5.541 7.757-3.196-.039-19.999-4.204-19.578-9.358z"></path></g></g><g><g><path fill="#de6b37" d="M249.935 71.995c4.864-8.223 17.342-13.099 22.924-16.407 5.582-3.308 6.895-6.468 8.537-11.29 1.641-4.824 1.97-6.465 4.597-5.809 2.626.657-1.642 7.553-1.642 12.314s8.537 17.566 8.209 22.82c-.329 5.254-1.642 13.626-1.642 13.626z"></path></g></g><g><g><g><path fill="#246fc6" d="M700.05 133.393S417.46 266.714 249.935 121.09C149.46 33.75 63.649 16.951 0 20.224c0 0 5.341 4.33 6.888 8.658 4.061 11.362 13.84 20.154 25.804 21.723C144.474 65.27 256.769 295.771 445.243 314.816c135.126 13.653 254.565-48.596 254.565-48.596v-45.313z"></path></g></g></g><g><g><g><path fill="#132d7f" d="M486.199 299.723c-27.92 0-54.798-2.997-80.381-8.983-55.138-12.903-104.331-39.792-146.211-79.92l-4.949-4.742C103.616 61.35 85.229 41.055 11.949 38.232c0 0-.696-.95-1.189-1.654-.558-.798-1.55-2.553-1.55-2.553 75.523 2.91 97.06 21.681 249.537 167.785l4.948 4.742c93.055 89.16 205.511 94.163 283.466 82.66 84.747-12.506 148.261-46.66 148.893-47.003l2.825 5.191c-.64.348-64.929 34.943-150.67 47.631-21.145 3.13-41.851 4.692-62.01 4.692z"></path></g></g></g><g><g><path fill="#0b354c" d="M302.792 213.022l17.386-56.02-16.239-6.125s-1.644 19.864-1.764 26.336c-.167 9.064.617 35.81.617 35.81z"></path></g></g><g><g><path fill="#21232b" d="M212.606 55.583s56.148 23.641 78.312 30.537c22.164 6.895 25.611 6.895 25.611 6.895s-9.223 33.665-11.328 47.282c-2.105 13.618-2.409 72.725-2.409 72.725s-42.425-29.467-78.587-69.817l-28.358-25.747s-.479-18.533 4.446-31.83c4.925-13.299 12.313-30.045 12.313-30.045z"></path></g></g><g><g><g><path fill="#132d7f" d="M488.54 275.826c-27.919 0-54.796-2.996-80.38-8.983-55.138-12.903-104.331-39.792-146.211-79.92C105.799 37.307 79.367 28.55 4.893 25.257l-3.346-3.65c76.387 2.941 106.785 9.942 264.491 161.048 93.053 89.16 205.513 94.164 283.464 82.66 84.749-12.506 148.262-46.66 148.894-47.004l2.826 5.192c-.64.348-64.929 34.943-150.672 47.631-21.144 3.13-41.849 4.692-62.01 4.692z"></path></g></g></g><g><g><path fill="#7db3ec" d="M380.558 31.17c65.013 26.876 196.353 16.697 239.367 10.376 0 27.335 6.403 99.736 16.253 124.363-73.386 30.536-185.189 38.7-228.532 30.327-43.342-8.373-54.298-12.268-73.878-22.61 2.814-45.987 30.042-110.984 46.79-142.456z"></path></g></g><g><g><path fill="#246fc5" d="M498.474 68.767c-10.811 0-20.588-.29-29.158-.723-42.326-2.139-78.898-9.124-97.829-18.687l.902-1.785c32.67 16.502 133.99 30.148 247.713 7.031l.398 1.96c-46.843 9.522-89.19 12.204-122.026 12.204z"></path></g></g><g><g><path fill="#246fc5" d="M382.528 44.255a3.283 3.283 0 1 1 6.567 0 3.283 3.283 0 0 1-6.567 0z"></path></g></g><g><g><path fill="#246fc5" d="M397.632 49.673a3.776 3.776 0 1 1 7.552 0 3.776 3.776 0 0 1-7.552 0z"></path></g></g><g><g><path fill="#246fc5" d="M414.05 52.833a3.16 3.16 0 1 1 6.32 0 3.16 3.16 0 0 1-6.32 0z"></path></g></g><g><g><path fill="#246fc5" d="M606.45 49.673a2.504 2.504 0 1 1 5.008 0 2.504 2.504 0 0 1-5.007 0z"></path></g></g><g><g><path fill="#246fc6" d="M385.811 78.732c8.866 4.268 22.656 6.895 28.238 7.552-6.238 16.417-8.865 34.805-8.865 34.805s-27.664-5.772-33.246-5.84c2.555-12.156 13.873-36.517 13.873-36.517z"></path></g></g><g><g><path fill="#0b354c" d="M245.277 114.71c0-5.518 3.749-9.991 8.373-9.991 4.624 0 8.373 4.473 8.373 9.99 0 5.519-3.749 9.992-8.373 9.992-4.624 0-8.373-4.473-8.373-9.991z"></path></g></g><g><g><path fill="#0b354c" d="M401.408 110.746s19.208 108.104 53.424 204.902c131.136 9.888 244.976-49.428 244.976-49.428l.315-158.233s-9.274-30.24-15.677-51.994c-8.373 2.873-283.038 54.753-283.038 54.753z"></path></g></g><g><g><path fill="#7db3ec" d="M427.347 124.701c23.642-2.135 238.875-44.094 246.263-48.432 10.343 38.511 46.79 159.086 46.79 159.086s-125.101 65.013-247.248 57.133c-28.074-85.207-45.805-167.787-45.805-167.787z"></path></g></g><g><g><path fill="#246fc6" d="M564.27 118.626c23.372-9.522 96.042-17.238 99.49-18.716 15.268 69.446 29.059 110.82 29.059 110.82s-54.178 25.938-93.58 31.52c-7.881-24.626-29.223-113.527-34.969-123.624z"></path></g></g><g><g><path fill="#246fc6" d="M457.392 150.877s89.241-16.982 93.216-18.296l2.662 7.881s-21.015 5.07-46.626 10.415c-25.611 5.345-46.297 11.256-46.297 11.256z"></path></g></g><g><g><path fill="#246fc6" d="M465.618 189.141c21.992-.912 89.294-13.218 93.89-14.367 3.284 9.686 2.853 12.791 2.853 12.791l-92.821 13.97z"></path></g></g><g><g><path fill="#246fc6" d="M475.122 221.236l4.27 12.477s59.361-8.209 71.216-10.507c11.856-2.299 19.736-3.612 19.736-3.612l-4.597-13.79s-48.596 10.506-57.461 12.477c-8.866 1.97-33.164 2.955-33.164 2.955z"></path></g></g><g><g><path fill="#f7f2ec" d="M507.968 132.628c11.066 0 21.308 7.706 24.357 19.257 3.607 13.663-4.191 27.612-17.383 31.095-13.193 3.485-26.859-4.8-30.466-18.463-3.607-13.662 4.191-27.61 17.384-31.094a23.85 23.85 0 0 1 6.108-.795zm7.995 54.22c15.324-4.047 24.4-20.188 20.23-35.984-4.169-15.794-20.029-25.356-35.355-21.309-15.324 4.046-24.399 20.188-20.229 35.984 3.522 13.343 15.387 22.236 28.226 22.236 2.358 0 4.75-.3 7.128-.928z"></path></g></g><g><g><path fill="#d9d5c8" d="M599.083 68.017c29.846-.754 46.322-14.008 63.646-11.769.377 19.301 9.038 37.378 10.545 40.767-22.596 6.402-49.494 13.576-49.494 13.576s-4.36 13.54-8.503 17.682c-10.545-23.349-15.44-56.867-16.194-60.256z"></path></g></g><g><g><path fill="#d9d5c8" d="M236.083 4.853l25.94 14.12-19.373 25.282s1.97-11.11.985-13.08c-5.91-3.612-16.417-9.577-19.372-9.577 5.253-9.85 11.82-16.745 11.82-16.745z"></path></g></g><g><g><g><path fill="#da6052" d="M459.428 161.511l-12.51-2.715 13.277-30.997 19.27-1.886 26.75-88.135 4.774 1.214-23.961 94.23-21.558 1.2z"></path></g></g></g><g><g><path fill="#f0793b" d="M497.01 150.877c-.504-9.356 10.371-9.352 11.155-9.074 2.912 1.03 12.456 12.11 16.694 15.505 4.238 3.394 15.319 15.788 19.978 18.832 6.307 4.121 26.313 21.976 29.037 23.186 13.32-3.632 15.763-7.748 22.725-6.537 6.962 1.21 12.108 5.81 16.346 6.537 4.238.728 19.978-.483 28.151 3.452 8.173 3.935 19.979 12.771 23.611 16.98 3.633 4.21 17.557 28.122 23.611 32.966 6.054 4.843 11.805 9.99 11.805 9.99v68.107s-47.203-17.535-73.519-21.304c-26.675-3.82-49.234-20.228-56.26-28.339-5.143-5.939-14.09-21.795-17.074-23.61-2.984-1.817-22.756-20.494-25.442-23.855-3.596-4.5 3.085-12.412 6.717-13.955 3.633-1.542 19.11.648 22.482 2.225-19.027-14.165-26.114-24.957-29.141-28.286-3.027-3.33-13.924-16.05-15.438-18.923-1.513-2.872-15.135-18.285-15.438-23.897z"></path></g></g><g><g><path fill="#d9d5c8" d="M502.633 145.671c-3.403 3.386 2.285 13.957 5.009 16.462 2.725 2.504 9.026-.377 10.237-1.588 1.211-1.21 2.292-4.009.476-6.366-1.816-2.357-10.19-14.013-15.722-8.508z"></path></g></g><g><g><path fill="#d9d5c8" d="M530.704 230.165c2.93-5.562 4.61-6.612 9.15-6.309 4.54.302 14.429 5.445 14.67 9.857.155 2.848-4.541 5.33-7.568 8.537-3.027 3.21-3.611 1.998-3.611 1.998s-14.112-11.292-12.641-14.083z"></path></g></g><g><g><path fill="#d9d5c8" d="M578.553 32.746a8.226 8.226 0 1 1 16.451 0 8.226 8.226 0 0 1-16.451 0z"></path></g></g><g><g><g><path fill="#132d7f" d="M51.892 55.16l-4.714-1.483c1.157-2.667 4.397-10.253 4.981-12.087l4.693 1.498c-.767 2.402-4.524 11.067-4.96 12.072z"></path></g></g></g><g><g><g><path fill="#132d7f" d="M119.537 77.603l-4.142-2.666 8.21-12.752 4.142 2.666z"></path></g></g></g><g><g><g><path fill="#132d7f" d="M163.305 136.245l-4.358-4.125 8.93-13.347 4.95 3.231z"></path></g></g></g><g><g><g><path fill="#132d7f" d="M236.824 183.555l-5.093-4.648c.053-.059 5.734-6.383 8.643-14.868l6.522 2.235c-3.387 9.885-9.801 16.983-10.072 17.281z"></path></g></g></g><g><g><path fill="#21232b" d="M567.364 152.506l-.209-1.989c24.267-2.539 53.512-12.107 53.805-12.204l.625 1.901c-.294.096-29.738 9.73-54.221 12.292z"></path></g></g><g><g><path fill="#21232b" d="M597.95 156.448c-.333 0-.639-.015-.919-.045l.216-1.988c5.657.625 24.97-6.354 25.162-6.424l.682 1.881c-.775.28-18.247 6.576-25.141 6.576z"></path></g></g><g><g><path fill="#21232b" d="M642.299 179.007l-.422-1.955c8.852-1.914 47.441-14.335 50.506-15.82l.871 1.801c-3.381 1.638-41.88 14.012-50.955 15.974z"></path></g></g><g><g><path fill="#21232b" d="M655.69 183.662l-.606-1.906c5.335-1.698 17.323-6.098 17.443-6.142l.69 1.877c-.122.045-12.15 4.46-17.527 6.171z"></path></g></g><g><g><path fill="#21232b" d="M661.06 195.99l-.51-1.935c9.107-2.397 14.972-5.68 15.03-5.713l.986 1.741c-.246.14-6.13 3.44-15.506 5.906z"></path></g></g><g><g><path fill="#da6052" d="M452.224 0l-30.826 8.947 23.161 22.223z"></path></g></g><g><g><path fill="#da6052" d="M510.93 24.554l-13.182 15.393 19.922 3.72z"></path></g></g><g><g><path fill="#de6b37" d="M688.923 313.87c-17.254-1.212-25.124-7.018-37.232-15.439-12.108-8.42-29.06-3.329-36.93-2.724-7.87.606-28.811-2.557-54.212-29.163l-.224.266c3.432 5.183 7.269 11.193 10.019 14.367 7.026 8.112 29.585 24.52 56.26 28.34 26.316 3.77 73.519 21.304 73.519 21.304v-16.407a286.281 286.281 0 0 1-11.2-.545z"></path></g></g><g><g><path fill="#de6b37" d="M559.064 228.205c8.56 6.438 23.006 23.913 26.638 22.097 3.633-1.816-7.265-10.778-12.713-16.589-5.449-5.81-7.265-15.8-12.714-21.55-5.449-5.753-25.341-16.71-28.108-21.372-2.767-4.662-13.894-16.598-18.168-19.71-4.275-3.114-13.659-12.88-13.659-12.88 4.218 6.595 11.061 14.586 12.108 16.573 1.514 2.872 12.411 15.593 15.438 18.923 3.027 3.33 10.114 14.121 29.141 28.285-1.801-.84-7.051-1.857-12.107-2.387a85.615 85.615 0 0 1 14.144 8.61z"></path></g></g><g><g><g><path fill="#132d7f" d="M426.103 291.9l-6.868-.606 2.146-24.319 6.868.606z"></path></g></g></g><g><g><g><path fill="#132d7f" d="M322.774 271.153l-5.808-3.607 4.9-12.608 6.096 2.148z"></path></g></g></g><g><g><path fill="#da6052" d="M69.405 78.322c0-12.332 9.996-22.328 22.327-22.328 12.332 0 22.328 9.996 22.328 22.328 0 12.331-9.996 22.328-22.328 22.328-12.33 0-22.327-9.997-22.327-22.328z"></path></g></g><g><g><path fill="#d9d5c8" d="M157.947 45.896c0 4.534-3.689 8.223-8.223 8.223-4.534 0-8.223-3.689-8.223-8.223 0-4.533 3.689-8.222 8.223-8.222 4.534 0 8.223 3.69 8.223 8.222zm2 0c0-5.637-4.586-10.222-10.223-10.222-5.637 0-10.223 4.585-10.223 10.222s4.586 10.223 10.223 10.223c5.637 0 10.223-4.586 10.223-10.223z"></path></g></g><g><g><path fill="#21232b" d="M560.672 254.344l-.693-.72c.676-.652 1.81-1.383 3.012-2.158 1.692-1.09 3.61-2.328 4.088-3.285l.895.448c-.602 1.202-2.554 2.461-4.441 3.678-1.16.747-2.254 1.453-2.86 2.037z"></path></g></g><g><g><path fill="#d9d5c8" d="M408.045 144.21l-51.565 9.458s53.466 65.13 60.73 80.045c7.264 14.915 32.82 67.99 32.82 67.99s-27.789-97.425-32.13-113.723c-4.34-16.298-9.855-43.77-9.855-43.77z"></path></g></g><g><g><path fill="#f7f2ec" d="M91.204 79.887L85.35 62.504l1.894-.639 5.017 14.891 8.648-5.857 1.12 1.656z"></path></g></g><g><g><g><path fill="#246fc6" d="M433.694 244.257c-10.99-26.38-53.894-82.646-54.301-83.17l-.898-1.157 31.708-5.653.377 1.73-28.899 5.153c6.042 7.881 39.194 49.321 49.353 73.71z"></path></g></g></g><g><g><path fill="#21232b" d="M373.182 184.735l-22.48 9.587 19.542 14.675z"></path></g></g><g><g><g><path fill="#da6052" d="M303.366 174.775l.574-23.898 69.378-25.402-38.01-55.117 56.685-37.431 10.122 8.987 43.974-37.06 3.94 1.724-47.94 41.9-10.538-9.358-48.841 32.253 44.94 56.75z"></path></g></g></g><g><g><path fill="#da6052" d="M214.947 119.478c-5.555-5.579-11.969-11.35-18.76-17.462-5.775-5.195-11.745-10.567-17.282-15.932l1.39-1.436c5.512 5.34 11.469 10.698 17.229 15.882 6.812 6.13 13.247 11.92 18.841 17.538z"></path></g></g></g></svg> 