<svg xmlns="http://www.w3.org/2000/svg" width="647" height="424" viewBox="0 0 647 424"><g><g><g><path fill="#132d7f" d="M.015 108.886c168.249 29.09 462.49-158.923 609.857-6.324C735.536 232.688 512.295 398.53 337.75 418.767 163.205 439.004.015 387.147.015 387.147z"/></g></g><g><g><path fill="#246fc6" d="M116.556 104.288C74.003 111.71 34.38 114.827.015 108.886v278.26s163.19 51.858 337.734 31.62c78.85-9.142 167.63-47.997 229.7-99.85-65.882 10.461-336.17-31.732-450.893-214.628z"/></g></g><g><g><path fill="#132d7f" d="M.015 258.28v128.866s47.569 15.109 118.794 25.834C66.836 374.848 25.65 318.545.015 258.28z"/></g></g><g><g><g><path fill="#7db3ec" d="M90.46 342.248C49 292.822 16.58 230.582 0 169.176L.015 142.3C14.637 207.92 51.597 284.43 96.118 337.502z"/></g></g></g><g><g><g><path fill="#7db3ec" d="M467.251 381.287c-34.536-4.608-100.86-17.19-180.771-52.915C181.392 281.391 106.94 207.718 65.196 110.969l4.845-.399c41.244 95.58 114.523 166.845 218.449 213.306 79.343 35.473 152.606 48.87 186.877 53.443z"/></g></g></g><g><g><g><path fill="#7db3ec" d="M318.806 420.69C243.657 397.164 176.5 353.91 124.199 295.265c-47.23-52.96-82.168-118.68-97.222-183.538l6.812.222c25.196 108.555 122.698 255.003 299.508 307.029z"/></g></g></g><g><g><path fill="#b4b4b4" d="M448.319 287.749l-72.975-33.54 24.421-74.158 75.917 30.87z"/></g></g><g><g><path fill="#707070" d="M492.625 263.442l-44.306 24.307 27.363-76.83 47.096-22.594z"/></g></g><g><g><path fill="#707070" d="M446.844 160.398l-47.079 19.653 75.917 30.869 47.096-22.595z"/></g></g><g><g><path fill="#b2ac9d" d="M446.844 160.398l-11.547 34.127 40.385 16.395 47.096-22.595z"/></g></g><g><g><path fill="#b4b4b4" d="M446.844 160.398l-47.079 19.653-18.521-39.067 47.079-19.654z"/></g></g><g><g><path fill="#b4b4b4" d="M522.778 206.352l-47.096 4.568 47.096-22.595 47.66-4.881z"/></g></g><g><g><g><path fill="#21232b" d="M446.79 199.172l-3.566-20.42 24.492-1.603 6.448-54.644 2.428-.271c15.4-1.722 39.604-4.588 46.802-5.81V68.37h6.153v50.46c0 3.55-.004 3.672-49.844 9.248l-6.475 54.875-22.764 1.49 3.05 17.463z"/></g></g></g><g><g><g><path fill="#da6052" d="M477.945 198.63l-2.639-2.582 30.25-30.93 11.684 2.504v-19.87h3.692v24.437l-14.16-3.034z"/></g></g></g><g><g><path fill="#7db3ec" d="M554.47 147.429a7.984 7.984 0 1 1 15.968 0 7.984 7.984 0 0 1-15.968 0z"/></g></g><g><g><path fill="#da6052" d="M598.11 78.198l10.346 11.86-15.444 3.03-15.443 3.03 5.097-14.89 5.098-14.89z"/></g></g><g><g><path fill="#7db3ec" d="M370.722 81.27c11.935-6.177 18.353-9.851 20.362-21.229 2.008-11.376-2.26-28.015 8.054-39.748C409.378 8.645 426.208.19 426.208.19l45.604 15.933s-16.478 14.131-21.456 24.93c-5.27 11.433.662 32.53-4.594 43.274-5.255 10.745-19.534 22.518-19.534 22.518z"/></g></g><g><g><path fill="#f7f2ec" d="M425.785 9.396l29.487 10.816S438.89 34.31 438.138 45.36c-.753 11.05 2.761 25.58-1.666 33.502-4.427 7.922-11.434 13.92-11.434 13.92l-34.242-13.435s8.598-9.513 9.697-15.582c2.025-11.184-.39-26.079 5.64-36.623 5.602-9.795 19.652-17.747 19.652-17.747z"/></g></g><g><g><path fill="#ae4437" d="M336.165 260.5l-83.691 32.239-48.4-82.503 83.691-32.238z"/></g></g><g><g><path fill="#d9d5c8" d="M321.86 209.832s-42.405 15.485-59.502 23.861c-13.277 6.505-41.957 22.456-41.957 22.456l-30.582-66.987s35.805-18.77 47.325-24.03c13.21-6.03 52.597-19.145 52.597-19.145z"/></g></g><g><g><path fill="#f7f2ec" d="M288.888 186.785s-39.44 17.182-55.814 25.218c-12.714 6.24-40.164 21.577-40.164 21.577l-30.013-65.744s34.278-18.028 45.314-23.066c12.655-5.777 50.43-18.248 50.43-18.248z"/></g></g><g><g><path fill="#246fc6" d="M287.761 135.912l-17.352-4.591 15.002-56.702 17.352 4.59z"/></g></g><g><g><path fill="#246fc6" d="M312.717 142.514l-17.352-4.59 8.915-33.695 17.352 4.59z"/></g></g><g><g><path fill="#246fc6" d="M337.673 149.117l-17.352-4.591 4.202-15.882 17.352 4.59z"/></g></g><g><g><path fill="#da6052" d="M354.355 79.542l-6.493.123-6.026 10.418c-.74 1.28-2.594 1.268-3.315-.023l-5.656-10.109-7.407.141a4.299 4.299 0 0 1-4.38-4.216l-.481-25.24a4.299 4.299 0 0 1 4.216-4.38l28.897-.55a4.299 4.299 0 0 1 4.38 4.216l.482 25.24a4.3 4.3 0 0 1-4.217 4.38z"/></g></g><g><g><path fill="#246fc6" d="M378.374 215.678c0-6.23 5.05-11.281 11.281-11.281 6.231 0 11.282 5.05 11.282 11.281 0 6.231-5.05 11.282-11.282 11.282-6.23 0-11.281-5.05-11.281-11.282z"/></g></g><g><g><path fill="#246fc6" d="M219.439 159.164c7.772-3.33 19.318-7.77 20.65-8.216 1.331-.443 3.552 8.216 3.552 8.216l-20.205 7.549z"/></g></g><g><g><path fill="#246fc6" d="M229.193 181.124c7.772-3.33 19.317-7.771 20.65-8.216 1.332-.443 3.552 8.216 3.552 8.216l-20.205 7.549z"/></g></g><g><g><path fill="#246fc6" d="M193.037 199.773c7.649-3.602 19.03-8.447 20.347-8.938 1.315-.49 3.84 8.084 3.84 8.084l-19.926 8.258z"/></g></g><g><g><g><path fill="#21232b" d="M96.135 157.047c.757-6.137 12.35-4.499 15.753-4.004l34.338 6.929-.502 9.204-35.628-3.805c-3.404-.494-14.854-2.69-13.961-8.324z"/></g></g></g><g><g><path fill="#21232b" d="M148.141 170.031c-.975-.109-.917-2.817-.601-5.654.315-2.836.765-4.724 1.74-4.615l-5.927-1.032c-1.38-.153-2.775 2.187-3.112 5.226-.337 3.04.51 5.628 1.89 5.781z"/></g></g><g><g><g><path fill="#21232b" d="M336.715 176.405l-1.907-.463c9.083-37.557 24.32-42.888 37.764-47.591 6.788-2.375 13.199-4.618 18.406-10.755 4.168-4.91 5.133-11.32 6.156-18.106 1.354-8.967 2.886-19.133 12.459-27.213l1.265 1.501c-9.007 7.602-10.418 16.96-11.782 26.005-1.066 7.07-2.073 13.746-6.601 19.084-5.553 6.544-12.208 8.872-19.254 11.338-13.606 4.758-27.674 9.68-36.506 46.2z"/></g></g></g><g><g><path fill="#21232b" d="M195.907 168.51c0 13.956-9.86 25.269-22.025 25.269-3.573 0-9.726-1.605-9.726-1.605s-12.299-13.807-12.299-23.665c0-13.955 21.296-25.836 21.296-25.836s5.494 1.018 7.68 1.85c8.756 3.34 15.074 12.816 15.074 23.986z"/></g></g><g><g><path fill="#0b354c" d="M147.365 167.57c0-13.956 9.86-25.27 22.024-25.27 12.164 0 22.025 11.314 22.025 25.27 0 13.957-9.86 25.27-22.025 25.27-12.163 0-22.024-11.313-22.024-25.27z"/></g></g><g><g><path fill="#7db3ec" d="M153.308 167.57c0-10.19 7.2-18.45 16.081-18.45 8.882 0 16.082 8.26 16.082 18.45s-7.2 18.452-16.082 18.452c-8.881 0-16.081-8.261-16.081-18.451z"/></g></g><g><g><path fill="#da6052" d="M336.09 260.5l-83.69 32.24s14.928-33.857 18.98-45.563c3.866-11.169 12.693-45.935 12.693-45.935l26.82-8.83-2.998 12.127 55.495-21.377s-8.53 28.797-11.99 39.177c-6.553 19.662-15.31 38.16-15.31 38.16z"/></g></g><g><g><path fill="#21232b" d="M287.755 300.407l-117.81-68.017c-4.331-2.501-9.25-3.042-13.746-1.92l.002-.004-.068.02c-.347.088-.686.195-1.027.303l-13.331 3.939 5.606.838a18.493 18.493 0 0 0-2.74 3.603L56.756 401.28c50.69 10.987 111.64 20.758 181.382 22.022l56.396-97.592c5.116-8.86 2.08-20.188-6.78-25.303z"/></g></g><g><g><path fill="#0b354c" d="M274.986 304.172l-117.81-68.017c-8.86-5.116-20.188-2.08-25.304 6.78L47.028 399.436c49.319 9.408 111.221 20.402 180.813 23.604l53.925-93.565c5.115-8.86 2.08-20.189-6.78-25.304z"/></g></g><g><g><path fill="#21232b" d="M261.294 316.72l-108.786-62.808a7.997 7.997 0 0 0-10.924 2.927s-81.926 145.395-80.957 145.6c43.972 9.325 92.82 16.16 148.957 19.599l54.637-94.394a7.996 7.996 0 0 0-2.927-10.925z"/></g></g><g><g><g><path fill="#7db3ec" d="M15.583 291.07l-3.216-6.647 32.556-15.754 3.216 6.646z"/></g></g></g><g><g><g><path fill="#7db3ec" d="M14.14 201.522l-2.095-5.786 41.917-15.186 2.096 5.786z"/></g></g></g><g><g><g><path fill="#7db3ec" d="M91.155 248.18l-2.503-4.24 46.298-27.323 2.503 4.24z"/></g></g></g><g><g><g><path fill="#7db3ec" d="M299.681 411.526l-5.315-3.101 37.769-64.733 5.314 3.101z"/></g></g></g><g><g><path fill="#246fc6" d="M97.926 335.63l28.053 78.179 32.37 4.308c-5.088-3.243-50.425-101.795-50.425-101.795z"/></g></g><g><g><path fill="#246fc6" d="M116.493 301.611l58.074 118.026 17.648 1.18c-5.088-3.242-68.833-131.11-68.833-131.11z"/></g></g><g><g><g><path fill="#da6052" d="M184.403 348.128l-15.79-2.571c2.487-15.272.348-27.459-6.358-36.226-7.021-9.177-19.09-14.71-35.871-16.449-25.696-2.661-44.638-11.944-54.775-26.843-8.624-12.676-10.388-28.427-5.243-46.814 6.994-25.004-3.02-43.454-9.61-52.227-9.125-12.144-22.467-20.37-33.202-20.47l.15-16c15.7.148 33.695 10.69 45.843 26.86 14.44 19.219 18.782 42.71 12.227 66.147-3.816 13.637-2.784 24.908 3.064 33.505 7.295 10.72 22.634 17.799 43.194 19.927 21.337 2.21 37.126 9.828 46.93 22.642 9.49 12.405 12.665 28.73 9.441 48.52z"/></g></g></g><g><g><path fill="#246fc6" d="M192.215 276.622l46.616 95.393 4.942-8.56-40.31-80.339z"/></g></g><g><g><path fill="#da6052" d="M165.872 348.072c0-5.41 4.385-9.794 9.794-9.794 5.408 0 9.793 4.385 9.793 9.794 0 5.408-4.385 9.793-9.793 9.793-5.41 0-9.794-4.385-9.794-9.793z"/></g></g><g><g><g><path fill="#21232b" d="M333.075 301.611l-1.784-.816c10.944-23.9 16.62-29.534 31.825-37.788 14.6-7.923 21.086-15.816 22.286-20.562l1.903.481c-1.302 5.148-8.096 13.58-23.252 21.807-14.754 8.008-20.271 13.5-30.978 36.878z"/></g></g></g><g><g><path fill="#da6052" d="M427.772 187.769a4.312 4.312 0 0 1-1.266 3.058l-7.384-3.058a4.325 4.325 0 0 1 8.65 0z"/></g></g></g></svg>