<svg xmlns="http://www.w3.org/2000/svg" width="108" height="108" viewBox="0 0 108 108"><defs><mask id="8i2mb" width="2" height="2" x="-1" y="-1"><path fill="#fff" d="M15 5h78v78H15z"/><path d="M93 44c0 21.54-17.46 39-39 39S15 65.54 15 44 32.46 5 54 5s39 17.46 39 39z"/></mask><filter id="8i2ma" width="134" height="144" x="-13" y="-23" filterUnits="userSpaceOnUse"><feOffset dy="10" in="SourceGraphic" result="FeOffset1037Out"/><feGaussianBlur in="FeOffset1037Out" result="FeGaussianBlur1038Out" stdDeviation="7.2 7.2"/></filter><clipPath id="8i2mc"><path fill="#fff" d="M93 44c0 21.54-17.46 39-39 39S15 65.54 15 44 32.46 5 54 5s39 17.46 39 39z"/></clipPath></defs><g><g><g filter="url(#8i2ma)"><path fill="none" d="M93 44c0 21.54-17.46 39-39 39S15 65.54 15 44 32.46 5 54 5s39 17.46 39 39z" mask="url(&quot;#8i2mb&quot;)"/><path fill-opacity=".25" d="M93 44c0 21.54-17.46 39-39 39S15 65.54 15 44 32.46 5 54 5s39 17.46 39 39z"/></g><path fill="#132d7f" d="M93 44c0 21.54-17.46 39-39 39S15 65.54 15 44 32.46 5 54 5s39 17.46 39 39z"/><path fill="none" stroke="#ffeae1" stroke-miterlimit="50" stroke-width="8" d="M93 44c0 21.54-17.46 39-39 39S15 65.54 15 44 32.46 5 54 5s39 17.46 39 39z" clip-path="url(&quot;#8i2mc&quot;)"/></g><g><path fill="#ffeae1" d="M43 43.792c4.83-4.142 9.642-8.275 14.446-12.394.922.805 1.881 1.65 2.894 2.525l-11.497 9.861c3.88 3.321 7.725 6.619 11.552 9.893-1.068.93-2.036 1.766-2.913 2.524-4.803-4.11-9.616-8.244-14.482-12.409z"/></g></g></svg>