<svg xmlns="http://www.w3.org/2000/svg" width="108" height="108" viewBox="0 0 108 108"><defs><mask id="9ieqb" width="2" height="2" x="-1" y="-1"><path fill="#fff" d="M15 5h78v78H15z"/><path d="M15 44C15 22.46 32.46 5 54 5s39 17.46 39 39-17.46 39-39 39-39-17.46-39-39z"/></mask><filter id="9ieqa" width="134" height="144" x="-13" y="-23" filterUnits="userSpaceOnUse"><feOffset dy="10" in="SourceGraphic" result="FeOffset1065Out"/><feGaussianBlur in="FeOffset1065Out" result="FeGaussianBlur1066Out" stdDeviation="7.2 7.2"/></filter><clipPath id="9ieqc"><path fill="#fff" d="M15 44C15 22.46 32.46 5 54 5s39 17.46 39 39-17.46 39-39 39-39-17.46-39-39z"/></clipPath></defs><g><g><g filter="url(#9ieqa)"><path fill="none" d="M15 44C15 22.46 32.46 5 54 5s39 17.46 39 39-17.46 39-39 39-39-17.46-39-39z" mask="url(&quot;#9ieqb&quot;)"/><path fill-opacity=".25" d="M15 44C15 22.46 32.46 5 54 5s39 17.46 39 39-17.46 39-39 39-39-17.46-39-39z"/></g><path fill="#132d7f" d="M15 44C15 22.46 32.46 5 54 5s39 17.46 39 39-17.46 39-39 39-39-17.46-39-39z"/><path fill="none" stroke="#ffeae1" stroke-miterlimit="50" stroke-width="8" d="M15 44C15 22.46 32.46 5 54 5s39 17.46 39 39-17.46 39-39 39-39-17.46-39-39z" clip-path="url(&quot;#9ieqc&quot;)"/></g><g><path fill="#ffeae1" d="M64.395 44.208c-4.83 4.142-9.643 8.275-14.446 12.394-.923-.805-1.882-1.65-2.895-2.525l11.497-9.861c-3.88-3.321-7.725-6.619-11.551-9.893 1.067-.93 2.035-1.766 2.913-2.524 4.803 4.11 9.615 8.244 14.482 12.409z"/></g></g></svg>