<svg xmlns="http://www.w3.org/2000/svg" width="1437.414" height="655.348" viewBox="0 0 1437.414 655.348"><g data-name="Groupe 2140"><path data-name="Tracé 2079" d="M7.906 416.433c75.918-3.349 99.421 44.239 125.041 48.007 37.959 5.582 44.5-10.056 72.569-13.4 46.891-5.582 156.42 95.122 253.432 99.363 204.307 8.935 387.407 208.778 703.36 26.798 99.989-57.591 248.967-100.48 274.645-100.48V.001H5.115z" fill="#246fc9"/><path data-name="Tracé 2080" d="M1437.413 244.068s-196.515-98.671-411.87-88.882c-196.494 8.932-577.2 178.631-781.51 178.631-82.737 0-193.7-34.151-240.593-55.922V39.634c61.519 37.405 256.224 77.593 391.313 63.079s392.988-80.384 579.434-71.452 463.226 133.826 463.226 133.826z" fill="#2286d1"/><path data-name="Tracé 2081" d="M1400.931 443.413c14.276 3 25.525 5.449 36.021 6.926-.03-.959-.062-5.58-.083-6.9v-.061c-1.021-.159-1.024-.16-2.085-.342a58.119 58.119 0 0 0-.954-11.844c1.51.345 1.76.421 3.122.67a36.535 36.535 0 0 0 0-7.077c-4.5-1.013-8.932-2.464-15.356-4.513.231-3.654.475-8.885.338-13.229 8.6 3.386 11.2 4.65 15.017 5.417a28.122 28.122 0 0 0 0-7.657c-1.05-.4-.9-.366-2.988-1.217-.035-2.959.5-7.242.371-12 1.448.715 1.609.812 2.689 1.315a19.617 19.617 0 0 0 .049-7.38c-1.481-.742-1.97-.995-3.7-1.862-3.2-1.6-6.889-3.509-11.035-5.632a57.576 57.576 0 0 0 .706-13.421c6.328 3.771 11.116 6.863 14.3 9a22.8 22.8 0 0 1-.038-6.922c-10.776-7.235-32.283-20.512-64.077-34.748v-.01h-.007q-8.384-3.755-17.7-7.566c-53.3-21.707-137.5-51.949-246.247-51.949-104.829 0-221.569 37.308-334.466 73.388-90.383 28.886-175.753 56.169-245.322 60.6-65.607 4.174-194.283-12.682-292.828-29.849-117.574-20.484-212.063-44.473-229.781-58.34l-6.881 8.792c23.838 18.657 141.355 44.276 234.746 60.546 88.72 15.457 201.856 30.651 272.392 30.651 8.311 0 16.041-.211 23.06-.658 68.109-4.334 150.107-29.844 237.123-57.625 4.018 14.174 8.884 38.75 10.776 48.584-96.621 44.988-244.425 105.854-431.615 95.957l3.423 11.88c14.115.746 24.15.389 38.169.389 77.642 0 154.124-11.48 232.547-34.822 77.911-23.19 143.094-54.13 190.69-76.72 21.2-10.065 39.516-18.756 54.825-24.894 95.253-38.191 191.637-59.787 271.4-60.806a606.908 606.908 0 0 1 211.756 34.81c1.373 5.153 1.985 12.78 2.253 17.976-47.8-15.531-111.434-30.192-186.715-27.995-77.011 2.255-160.645 25.506-241.861 67.243l-8.479 4.36c-80.971 41.646-249.465 128.31-334.965 144.335l2.058 10.972c87.094-16.33 256.57-103.5 338.015-145.388l8.475-4.357c79.746-40.98 161.729-63.807 237.087-66.013l.531-.012c.792 3.374 2.02 8.232 3.637 13.522 1.4 4.566 2.705 9.262 3.677 12.86-57.919 6.321-116.178 26.492-188.656 56.262-18.005 7.4-38.676 19.278-62.61 33.034-66.567 38.264-157.733 90.669-292.673 107.739l1.4 11.077c137.161-17.352 229.45-70.4 296.836-109.137 23.591-13.56 43.964-25.272 61.287-32.387 54.391-22.34 100.594-39.2 144.511-48.723 2.1 10.663 4.941 24.267 6.473 31.551-33.995 9.395-69.866 22.8-107.343 40.153-11.978 5.546-26.4 13.69-43.107 23.118-61.9 34.947-155.456 87.757-290.256 106.02l1.5 11.064c136.922-18.551 231.6-71.995 294.245-107.362 16.493-9.311 30.738-17.352 42.309-22.71 52.916-24.5 102.48-41 147.881-49.271 3.692 12.506 10.468 36.4 10.546 36.681l10.741-3.045c-.309-1.09-6.465-22.807-10.2-35.505q13.565-2.1 26.6-3.183c38.461-3.194 73.7-1.09 104.968 2.992-.568 9.34.375 26.969.418 27.753l11.146-.606c-.009-.18-.9-16.738-.47-25.6 13.643 2.03 26.453 4.379 38.385 6.746-1.4 8.3.158 21.908.229 22.519l7.763-.907c-.44-3.767-1.278-14.163-.327-20.069a3335.117 3335.117 0 0 1 16.334 3.412zm-22.024-52.817c14.578 5.174 26.927 10.07 36.816 13.993l.849.336c-.088 3.283-.792 8.518-1.362 13.311a1052.85 1052.85 0 0 0-7.006-2.2c-8.408-2.588-17.9-5.646-28.409-8.871a62.545 62.545 0 0 0-.888-16.571zm-20.552-16.075a141.762 141.762 0 0 0-1.646-17.542 616.502 616.502 0 0 1 41.847 17.255 75.48 75.48 0 0 1 .216 15.169c-11.626-4.59-25.143-9.741-40.417-14.883zm69.876 55.288c.912 3.212.457 8.415.088 12.043-7.493-1.456-15.839-3.3-24.994-5.232.011-3.18.027-9.03.014-14.181l.972.3c9.09 2.796 17.101 5.264 23.921 7.074zm-.735-41.631a105.263 105.263 0 0 1 1.7 13.451c-3.043-1.257-6.345-2.623-9.829-4-4.252-1.687-8.951-3.585-14.071-5.63a106.756 106.756 0 0 0 .314-14.5c8.67 4.064 15.979 7.714 21.887 10.678zm-9.812-26.708a37.224 37.224 0 0 1 .022 14.2c-10.817-5.5-24.314-12.149-40.259-18.956a34.509 34.509 0 0 0-.374-16.145c16.581 7.636 30.198 14.902 40.611 20.9zm-280.29-53.157c-81.1 1.038-178.914 22.918-275.412 61.609-15.63 6.267-34.087 15.027-55.458 25.17q-8.645 4.1-18 8.517c-2.2-11.325-6.685-33.5-10.568-47.1l.25-.079c112.082-35.82 227.98-72.859 331.068-72.859 14.755 0 29.073.5 42.96 1.39 3.283 5.329 6.354 15.361 8.322 23.595q-11.544-.375-23.162-.243zm189.884 29.965c-50.674-15.58-102.365-26.312-155.151-29.212a140.769 140.769 0 0 0-6.984-23.157c80.56 6.734 145.128 26.859 187.945 44.258q9.708 3.945 18.418 7.866a30.737 30.737 0 0 1 1.77 16.913c-13.686-5.704-29.06-11.456-45.998-16.664zm10.055 39.035a652.556 652.556 0 0 1 34.231 10.717 64.451 64.451 0 0 1 1.737 17.163c-11.064-3.328-23.154-6.761-36.183-10 .123-3.841.317-11.293.215-17.88zm-7.863-2.167c.171 6.009.017 13.575-.115 18.176-38.317-9-84.2-15.84-135.8-13.19-3.095.16-6.185.373-9.275.613-1.012-3.806-2.565-9.469-4.278-15.071a201.313 201.313 0 0 1-2.875-10.46 569.736 569.736 0 0 1 152.343 19.935zm-24.251 42.8a412.355 412.355 0 0 0-83.649-1.891 436.381 436.381 0 0 0-71.192 12.3c-1.555-7.4-4.3-20.579-6.338-30.907a368.361 368.361 0 0 1 50.09-6.158 510.074 510.074 0 0 1 110.3 6.545 126.387 126.387 0 0 1 .791 20.11zm46.95 7.653c-11.824-2.362-24.326-4.6-37.469-6.421-.339-4.391-1.04-12.855-1.909-19.884 14.979 2.729 28.929 5.881 41.729 9.141a60.841 60.841 0 0 1-2.352 17.163zm7.085 1.444a131.812 131.812 0 0 0 .46-17.261q7.261 1.909 13.988 3.822l-.034.085a3.878 3.878 0 0 0 1.232.255c8.427 2.4 16.211 4.746 23.319 6.924.026 4.9.011 10.949 0 14.664-11.936-2.577-24.949-5.579-38.966-8.49z" fill="#7db6ef"/><path data-name="Tracé 2082" d="M1091.414 510.214c-155.991 83.831-309.948 121.264-324.815 124.765 111.208 28.7 236.41 33.652 395.15-57.778 99.989-57.591 248.967-100.48 274.645-100.48v-12.467c-85.483-10.509-202.832-30.432-344.98 45.96z" fill="#2286d1"/><path data-name="Rectangle 5620" fill="none" d="M7.906.558h1429.047v654.789H7.906z"/></g></svg>